<svg width="113" height="103" viewBox="0 0 113 103" fill="none" xmlns="http://www.w3.org/2000/svg">
<g clip-path="url(#clip0_2690_307)">
<path d="M84.6313 15C80.2667 15 76.7172 18.5494 76.7172 22.914C76.7172 24.2792 77.0641 25.5639 77.6748 26.6864L64.7103 39.6509C62.9231 38.2593 60.686 37.4231 58.2512 37.4231C55.8163 37.4231 53.5792 38.2593 51.7907 39.6496L41.6752 29.5341C42.1395 28.7493 42.4231 27.8471 42.4231 26.871C42.4231 23.9613 40.0568 21.595 37.1471 21.595C34.2373 21.595 31.871 23.9613 31.871 26.871C31.871 29.7808 34.2373 32.1471 37.1471 32.1471C38.1231 32.1471 39.0253 31.8635 39.8101 31.3992L49.9256 41.5146C48.5354 43.3032 47.6991 45.5403 47.6991 47.9751C47.6991 50.41 48.5354 52.6471 49.9256 54.4343L33.2217 71.1395C31.8157 69.864 29.9572 69.0792 27.914 69.0792C23.5494 69.0792 20 72.6287 20 76.9933C20 81.3578 23.5494 84.9073 27.914 84.9073C32.2786 84.9073 35.8281 81.3578 35.8281 76.9933C35.8281 75.6281 35.4812 74.3434 34.8705 73.2209L51.792 56.2994C53.2508 57.4337 55.0104 58.1935 56.9335 58.4348V71.8359C53.1967 72.4664 50.3384 75.7165 50.3384 79.6313C50.3384 83.9959 53.8879 87.5453 58.2525 87.5453C62.6171 87.5453 66.1665 83.9959 66.1665 79.6313C66.1665 75.7178 63.3082 72.4677 59.5715 71.8359V58.4348C61.4946 58.1935 63.2541 57.4337 64.713 56.2994L74.8284 66.4148C74.3628 67.201 74.0792 68.1032 74.0792 69.0792C74.0792 71.9889 76.4455 74.3552 79.3552 74.3552C82.265 74.3552 84.6313 71.9889 84.6313 69.0792C84.6313 66.1695 82.265 63.8032 79.3552 63.8032C78.3792 63.8032 77.477 64.0868 76.6922 64.5511L66.5767 54.4356C67.9669 52.6471 68.8032 50.41 68.8032 47.9751C68.8032 45.5403 67.9669 43.3032 66.5767 41.516L79.3249 28.7678C80.7296 30.0433 82.5881 30.8281 84.6313 30.8281C88.9959 30.8281 92.5453 27.2786 92.5453 22.914C92.5453 18.5494 88.9959 15 84.6313 15ZM34.5091 26.871C34.5091 25.4162 35.6922 24.233 37.1471 24.233C38.6019 24.233 39.7851 25.4162 39.7851 26.871C39.7851 28.3259 38.6019 29.5091 37.1471 29.5091C35.6922 29.5091 34.5091 28.3259 34.5091 26.871ZM27.914 82.2693C25.0043 82.2693 22.638 79.903 22.638 76.9933C22.638 74.0835 25.0043 71.7172 27.914 71.7172C30.8238 71.7172 33.1901 74.0835 33.1901 76.9933C33.1901 79.903 30.8238 82.2693 27.914 82.2693ZM63.5272 79.6313C63.5272 82.541 61.1609 84.9073 58.2512 84.9073C55.3414 84.9073 52.9751 82.541 52.9751 79.6313C52.9751 76.7215 55.3414 74.3552 58.2512 74.3552C61.1609 74.3552 63.5272 76.7215 63.5272 79.6313ZM58.2512 55.8892C53.8866 55.8892 50.3371 52.3397 50.3371 47.9751C50.3371 43.6105 53.8866 40.0611 58.2512 40.0611C62.6157 40.0611 66.1652 43.6105 66.1652 47.9751C66.1652 52.3397 62.6157 55.8892 58.2512 55.8892ZM81.9933 69.0792C81.9933 70.5341 80.8101 71.7172 79.3552 71.7172C77.9004 71.7172 76.7172 70.5341 76.7172 69.0792C76.7172 67.6244 77.9004 66.4412 79.3552 66.4412C80.8101 66.4412 81.9933 67.6244 81.9933 69.0792ZM84.6313 28.1901C81.7215 28.1901 79.3552 25.8238 79.3552 22.914C79.3552 20.0043 81.7215 17.638 84.6313 17.638C87.541 17.638 89.9073 20.0043 89.9073 22.914C89.9073 25.8238 87.541 28.1901 84.6313 28.1901Z" fill="#28A86A"/>
</g>
<defs>
<clipPath id="clip0_2690_307">
<rect width="72.5453" height="72.5453" fill="white" transform="translate(20 15)"/>
</clipPath>
</defs>
</svg>
