<svg width="113" height="103" viewBox="0 0 113 103" fill="none" xmlns="http://www.w3.org/2000/svg">
<g clip-path="url(#clip0_2690_358)">
<path d="M66.8966 42.1259C66.8565 41.6271 66.4182 41.2544 65.9204 41.2952C63.0368 41.5271 60.0093 41.6448 56.9217 41.6448C49.5605 41.6448 42.6935 40.9845 37.5855 39.7856C37.0992 39.6721 36.6104 39.9736 36.4959 40.461C36.3815 40.9485 36.6839 41.4363 37.1712 41.5507C42.4109 42.7804 49.4251 43.4576 56.9217 43.4576C60.0575 43.4576 63.1341 43.338 66.0658 43.1021C66.5649 43.062 66.9367 42.6249 66.8966 42.1259Z" fill="#28A86A"/>
<path d="M66.8966 57.6631C66.8565 57.1642 66.4182 56.7918 65.9204 56.8324C63.0368 57.0643 60.0093 57.182 56.9217 57.182C49.5605 57.182 42.6935 56.5217 37.5855 55.3229C37.0992 55.209 36.6104 55.5108 36.4959 55.9982C36.3815 56.4857 36.6839 56.9735 37.1712 57.0879C42.4109 58.3177 49.4251 58.9948 56.9217 58.9948C60.0575 58.9948 63.1341 58.8752 66.0658 58.6393C66.5649 58.5992 66.9367 58.1621 66.8966 57.6631Z" fill="#28A86A"/>
<path d="M85.434 28.1305C85.2429 23.7956 73.5166 22.101 68.4505 21.5717C66.8874 21.4084 65.2491 21.2778 63.5807 21.1838C61.4134 21.0618 59.1728 21 56.9214 21C51.161 21 45.6291 21.4005 40.9237 22.1585C40.4294 22.2381 40.0933 22.7033 40.173 23.1976C40.2526 23.6917 40.7184 24.0283 41.212 23.9483C45.8238 23.2055 51.2559 22.8129 56.9216 22.8129C59.1391 22.8129 61.3452 22.8737 63.4789 22.9939C65.1183 23.0862 66.7276 23.2144 68.2623 23.3747C72.9502 23.8645 76.9136 24.6424 79.7237 25.6243C83.4375 26.9221 83.6257 28.0288 83.6257 28.2374C83.6257 28.9432 82.0707 30.4943 76.2427 31.8306C76.0817 31.8676 75.9191 31.9039 75.7548 31.9398C70.6628 33.0517 64.0019 33.6621 56.9216 33.6621C49.8412 33.6621 43.1803 33.0516 38.0883 31.9398C37.9241 31.9039 37.7615 31.8676 37.6005 31.8306C31.8254 30.5065 30.247 28.9721 30.2187 28.2576C30.2188 28.2508 30.2197 28.2443 30.2197 28.2376C30.2197 28.2312 30.2188 28.2251 30.2187 28.2187C30.2336 27.792 30.7501 27.2482 31.6431 26.7224C32.7699 26.0589 34.4221 25.4452 36.554 24.8982C37.0389 24.7738 37.3311 24.2799 37.2067 23.7949C37.0823 23.3102 36.5888 23.0182 36.1034 23.1423C30.9947 24.4529 28.4043 26.1674 28.4043 28.2378V75.6084C28.4043 77.8277 31.362 79.6312 37.1952 80.9687C42.4748 82.179 49.4804 82.8457 56.9214 82.8457C64.3625 82.8457 71.3683 82.1791 76.6476 80.9685C82.4808 79.6309 85.4385 77.8275 85.4385 75.6082V28.2843C85.4393 28.2687 85.4409 28.2532 85.4409 28.2375C85.441 28.2013 85.4384 28.1656 85.434 28.1305ZM76.2426 79.2014C71.092 80.3824 64.2304 81.0327 56.9214 81.0327C49.6125 81.0327 42.7509 80.3824 37.6003 79.2014C31.7724 77.8649 30.2173 76.314 30.2173 75.6082V62.5732C30.2371 62.5869 30.2589 62.6003 30.2791 62.6139C30.3283 62.6472 30.3786 62.6801 30.4297 62.713C30.4711 62.7396 30.5127 62.7661 30.5552 62.7926C30.6085 62.8257 30.6634 62.8584 30.7187 62.8912C30.7622 62.9169 30.8053 62.9427 30.85 62.9682C30.9083 63.0016 30.9686 63.0347 31.029 63.0678C31.0737 63.0922 31.1175 63.1167 31.1633 63.141C31.2291 63.1759 31.2974 63.2103 31.3655 63.2448C31.4088 63.2667 31.4508 63.2888 31.495 63.3106C31.5794 63.3521 31.6668 63.3932 31.7546 63.4342C31.7853 63.4485 31.8144 63.4631 31.8454 63.4774C31.9647 63.5321 32.0871 63.5863 32.2125 63.6401C32.2517 63.6569 32.2928 63.6733 32.3327 63.6901C32.4212 63.7273 32.5099 63.7644 32.6015 63.8011C32.6535 63.822 32.7075 63.8425 32.7606 63.8633C32.8427 63.8954 32.9248 63.9276 33.0093 63.9593C33.0677 63.9813 33.1278 64.0031 33.1873 64.0248C33.2695 64.0549 33.352 64.085 33.4361 64.1148C33.4988 64.1369 33.563 64.1589 33.6269 64.1809C33.7113 64.2099 33.7963 64.2388 33.883 64.2676C33.9488 64.2895 34.0156 64.3112 34.0826 64.3329C34.1703 64.3613 34.259 64.3896 34.3487 64.4176C34.4173 64.4391 34.4864 64.4605 34.5563 64.4818C34.6481 64.5098 34.7413 64.5376 34.8352 64.5652C34.9056 64.586 34.9759 64.6067 35.0475 64.6273C35.1449 64.6553 35.244 64.683 35.3436 64.7107C35.4145 64.7303 35.4849 64.7502 35.5569 64.7696C35.6626 64.7982 35.7706 64.8266 35.8787 64.8549C35.9472 64.8729 36.0149 64.891 36.0844 64.9088C36.2058 64.9399 36.3298 64.9706 36.454 65.0013C36.5131 65.0159 36.5708 65.0306 36.6305 65.0451C36.8158 65.0901 37.0037 65.1345 37.1952 65.1784C42.4748 66.3888 49.4803 67.0556 56.9214 67.0556C64.3626 67.0556 71.3682 66.3888 76.6477 65.1784C76.8391 65.1345 77.0271 65.0899 77.2124 65.0451C77.2722 65.0306 77.33 65.0159 77.3891 65.0013C77.5132 64.9706 77.6371 64.94 77.7584 64.9089C77.8281 64.891 77.8958 64.8729 77.9646 64.8549C78.0724 64.8266 78.1803 64.7982 78.2859 64.7696C78.3579 64.75 78.4283 64.7303 78.4992 64.7107C78.5987 64.683 78.6979 64.6553 78.7953 64.6273C78.8668 64.6068 78.9372 64.586 79.0076 64.5652C79.1015 64.5376 79.1947 64.5098 79.2865 64.4818C79.3563 64.4605 79.4254 64.4391 79.4942 64.4176C79.5838 64.3896 79.6723 64.3613 79.76 64.3331C79.8272 64.3113 79.8941 64.2896 79.9601 64.2676C80.0464 64.2388 80.1315 64.21 80.2158 64.181C80.2797 64.159 80.3438 64.137 80.4065 64.1149C80.4908 64.0852 80.5732 64.0551 80.6553 64.0249C80.7149 64.0031 80.7749 63.9814 80.8334 63.9595C80.9178 63.9277 81 63.8956 81.0821 63.8634C81.1351 63.8426 81.1891 63.8221 81.2412 63.8012C81.3324 63.7646 81.4209 63.7275 81.5092 63.6904C81.5493 63.6737 81.5908 63.657 81.6303 63.6401C81.7556 63.5863 81.878 63.5321 81.9972 63.4775C82.0283 63.4632 82.0575 63.4487 82.0881 63.4344C82.1759 63.3933 82.2632 63.3522 82.3476 63.3107C82.3918 63.2889 82.4339 63.2668 82.4771 63.245C82.5453 63.2104 82.6135 63.176 82.6793 63.1411C82.7251 63.1168 82.7691 63.0923 82.8138 63.0678C82.8741 63.0348 82.9343 63.0017 82.9926 62.9683C83.0374 62.9427 83.0806 62.9169 83.1242 62.891C83.1794 62.8583 83.2341 62.8256 83.2874 62.7926C83.33 62.7661 83.3716 62.7396 83.413 62.713C83.4641 62.6801 83.5145 62.647 83.5637 62.6139C83.5838 62.6003 83.6056 62.5869 83.6255 62.5732V75.6082H83.6256C83.6256 76.314 82.0707 77.8651 76.2426 79.2014ZM83.5825 60.0379C83.2966 60.8128 81.5243 62.2001 76.2427 63.4113C71.0921 64.5923 64.2304 65.2427 56.9216 65.2427C49.6128 65.2427 42.7511 64.5923 37.6005 63.4113C32.3188 62.2001 30.5465 60.8128 30.2606 60.0379C30.231 59.9578 30.2174 59.8842 30.2174 59.818V46.7829C30.2366 46.7961 30.2576 46.809 30.2771 46.8222C30.3276 46.8562 30.3793 46.8902 30.4318 46.924C30.4721 46.9499 30.5126 46.9758 30.5542 47.0015C30.6084 47.0351 30.6642 47.0686 30.7205 47.1019C30.7631 47.1272 30.8055 47.1525 30.8494 47.1775C30.9083 47.2112 30.9692 47.2446 31.0302 47.278C31.0744 47.3022 31.1179 47.3265 31.1632 47.3505C31.2288 47.3853 31.2968 47.4197 31.3648 47.454C31.4085 47.4761 31.451 47.4985 31.4956 47.5205C31.5787 47.5614 31.6647 47.6017 31.7511 47.6422C31.783 47.6572 31.8135 47.6723 31.8459 47.6871C31.9649 47.7417 32.0871 47.7959 32.2122 47.8495C32.2535 47.8672 32.2971 47.8846 32.3391 47.9023C32.4254 47.9384 32.5116 47.9746 32.6006 48.0104C32.6546 48.032 32.7107 48.0534 32.7656 48.0749C32.8457 48.1062 32.9258 48.1376 33.0082 48.1685C33.0682 48.1911 33.1301 48.2134 33.1913 48.2359C33.2717 48.2654 33.3523 48.2947 33.4348 48.324C33.499 48.3467 33.5645 48.3691 33.6299 48.3916C33.7129 48.4201 33.7963 48.4485 33.8813 48.4768C33.9484 48.4991 34.0166 48.5212 34.0849 48.5433C34.1715 48.5713 34.259 48.5991 34.3475 48.6269C34.417 48.6487 34.4869 48.6703 34.5576 48.6918C34.6487 48.7196 34.7409 48.7471 34.834 48.7744C34.905 48.7953 34.976 48.8163 35.0481 48.837C35.145 48.8648 35.2436 48.8924 35.3426 48.9198C35.414 48.9396 35.485 48.9596 35.5575 48.9793C35.6623 49.0076 35.7694 49.0358 35.8765 49.0639C35.946 49.0822 36.0146 49.1005 36.085 49.1185C36.2058 49.1496 36.3294 49.18 36.4531 49.2106C36.5125 49.2252 36.5706 49.2402 36.6306 49.2547C36.8159 49.2996 37.0039 49.3441 37.1953 49.3879C42.4749 50.5984 49.4805 51.2651 56.9216 51.2651C64.3626 51.2651 71.3683 50.5984 76.6478 49.3879C76.8393 49.3441 77.0272 49.2995 77.2125 49.2547C77.2727 49.2401 77.3309 49.2252 77.3903 49.2106C77.5139 49.1801 77.6372 49.1496 77.7579 49.1187C77.8284 49.1005 77.8973 49.0822 77.9669 49.0639C78.0738 49.0359 78.1807 49.0079 78.2854 48.9794C78.3579 48.9597 78.4289 48.9398 78.5003 48.92C78.5992 48.8924 78.6979 48.8649 78.7948 48.8371C78.867 48.8163 78.938 48.7954 79.0089 48.7745C79.1019 48.7471 79.1944 48.7196 79.2853 48.6919C79.356 48.6704 79.4259 48.6487 79.4955 48.6269C79.5839 48.5992 79.6714 48.5715 79.7579 48.5434C79.8263 48.5213 79.8946 48.4991 79.9619 48.4768C80.0467 48.4486 80.13 48.4202 80.2129 48.3917C80.2783 48.3693 80.3438 48.3468 80.4081 48.3241C80.4906 48.295 80.5711 48.2655 80.6516 48.236C80.7128 48.2136 80.7747 48.1913 80.8347 48.1686C80.9171 48.1377 80.9971 48.1063 81.0773 48.075C81.1322 48.0535 81.1883 48.0321 81.2423 48.0105C81.3311 47.9749 81.4171 47.9389 81.5031 47.9028C81.5455 47.885 81.5892 47.8675 81.6309 47.8496C81.756 47.796 81.8781 47.7419 81.9971 47.6873C82.0295 47.6724 82.0599 47.6573 82.0919 47.6423C82.1783 47.602 82.2643 47.5615 82.3474 47.5206C82.392 47.4986 82.4345 47.4764 82.4782 47.4541C82.5461 47.4197 82.6142 47.3853 82.6798 47.3506C82.7251 47.3266 82.7687 47.3023 82.8129 47.278C82.8738 47.2447 82.9347 47.2113 82.9935 47.1776C83.0375 47.1525 83.08 47.1272 83.1228 47.1018C83.1789 47.0684 83.2347 47.0351 83.2889 47.0015C83.3304 46.9758 83.3709 46.9498 83.4112 46.924C83.4638 46.8902 83.5155 46.8562 83.566 46.8222C83.5854 46.809 83.6064 46.7961 83.6256 46.7829V59.818H83.6257C83.6256 59.8842 83.6121 59.9577 83.5825 60.0379ZM76.2426 47.621C71.092 48.8019 64.2302 49.4524 56.9214 49.4524C49.6127 49.4524 42.7509 48.8019 37.6003 47.621C31.7724 46.2846 30.2173 44.7337 30.2173 44.0277V30.9927C30.2365 31.0058 30.2575 31.0188 30.2769 31.0319C30.3274 31.066 30.3791 31.0999 30.4317 31.1338C30.472 31.1597 30.5125 31.1856 30.554 31.2113C30.6083 31.2449 30.6641 31.2783 30.7204 31.3117C30.763 31.3369 30.8054 31.3623 30.8493 31.3873C30.9082 31.421 30.9691 31.4543 31.0301 31.4878C31.0743 31.512 31.1178 31.5362 31.1631 31.5603C31.2287 31.5951 31.2967 31.6295 31.3647 31.6638C31.4084 31.6859 31.4509 31.7082 31.4955 31.7302C31.5786 31.7712 31.6646 31.8115 31.751 31.852C31.7829 31.867 31.8134 31.8821 31.8458 31.8969C31.9648 31.9515 32.087 32.0056 32.212 32.0593C32.2533 32.077 32.297 32.0944 32.339 32.1121C32.4252 32.1482 32.5115 32.1844 32.6005 32.2202C32.6545 32.2418 32.7105 32.2632 32.7655 32.2847C32.8456 32.316 32.9257 32.3474 33.0081 32.3783C33.0681 32.4009 33.1299 32.4232 33.1912 32.4457C33.2716 32.4752 33.3522 32.5045 33.4347 32.5337C33.4988 32.5564 33.5644 32.5789 33.6298 32.6014C33.7128 32.6299 33.7962 32.6583 33.8811 32.6865C33.9483 32.7089 34.0164 32.731 34.0848 32.7531C34.1714 32.7811 34.2589 32.8089 34.3474 32.8367C34.4169 32.8584 34.4868 32.8801 34.5575 32.9016C34.6485 32.9293 34.7408 32.9569 34.8338 32.9842C34.9049 33.0051 34.9759 33.0261 35.048 33.0467C35.1449 33.0745 35.2434 33.1022 35.3425 33.1296C35.4139 33.1494 35.4849 33.1693 35.5574 33.189C35.6622 33.2174 35.7693 33.2456 35.8764 33.2737C35.9458 33.292 36.0145 33.3103 36.0849 33.3283C36.2057 33.3592 36.3292 33.3898 36.4529 33.4204C36.5124 33.435 36.5705 33.45 36.6305 33.4644C36.8158 33.5094 37.0037 33.5538 37.1952 33.5977C42.4747 34.8081 49.4803 35.4749 56.9214 35.4749C64.3626 35.4749 71.3683 34.8081 76.6477 33.5977C76.8391 33.5538 77.0271 33.5093 77.2124 33.4644C77.2725 33.4498 77.3308 33.435 77.3902 33.4204C77.5138 33.3899 77.6371 33.3594 77.7578 33.3284C77.8283 33.3103 77.8972 33.292 77.9667 33.2737C78.0736 33.2457 78.1805 33.2177 78.2853 33.1892C78.3577 33.1695 78.4288 33.1495 78.5002 33.1297C78.5991 33.1022 78.6978 33.0746 78.7947 33.0469C78.8669 33.0261 78.9379 33.0052 79.0088 32.9843C79.1018 32.9569 79.1942 32.9293 79.2852 32.9017C79.3559 32.8802 79.4258 32.8584 79.4954 32.8367C79.5838 32.809 79.6712 32.7812 79.7577 32.7532C79.8262 32.7311 79.8945 32.7089 79.9617 32.6865C80.0465 32.6584 80.1299 32.63 80.2128 32.6015C80.2782 32.579 80.3437 32.5566 80.408 32.5339C80.4905 32.5048 80.571 32.4753 80.6515 32.4458C80.7127 32.4233 80.7746 32.4011 80.8346 32.3784C80.917 32.3475 80.9969 32.3161 81.0771 32.2848C81.1321 32.2633 81.1882 32.2419 81.2421 32.2203C81.3309 32.1847 81.4169 32.1487 81.5029 32.1125C81.5453 32.0948 81.5891 32.0773 81.6307 32.0594C81.7559 32.0058 81.878 31.9516 81.997 31.897C82.0294 31.8822 82.0598 31.8671 82.0918 31.8521C82.1782 31.8118 82.2642 31.7713 82.3473 31.7304C82.3918 31.7084 82.4344 31.6861 82.4781 31.6639C82.546 31.6295 82.6141 31.5951 82.6797 31.5604C82.725 31.5364 82.7686 31.5121 82.8128 31.4878C82.8737 31.4545 82.9346 31.4211 82.9934 31.3874C83.0374 31.3623 83.0799 31.3369 83.1226 31.3116C83.1788 31.2782 83.2346 31.2449 83.2887 31.2113C83.3303 31.1856 83.3708 31.1596 83.4111 31.1338C83.4636 31.0999 83.5153 31.066 83.5658 31.0319C83.5853 31.0188 83.6063 31.0058 83.6255 30.9927V44.0277H83.6256C83.6256 44.7335 82.0707 46.2846 76.2426 47.621Z" fill="#28A86A"/>
<path d="M76.1897 38.4551C74.8117 37.0775 72.5699 37.0775 71.192 38.4551C69.8143 39.833 69.8143 42.0748 71.192 43.4526C71.8809 44.1414 72.7859 44.486 73.6908 44.486C74.5958 44.486 75.5007 44.1415 76.1897 43.4526C77.5674 42.0748 77.5674 39.833 76.1897 38.4551ZM74.9076 42.1707C74.5827 42.4957 74.1505 42.6747 73.6908 42.6747C73.2312 42.6747 72.799 42.4957 72.4741 42.1707C72.149 41.8457 71.97 41.4136 71.97 40.9539C71.97 40.4943 72.149 40.0621 72.4741 39.7372C72.799 39.4121 73.2312 39.2331 73.6908 39.2331C74.1505 39.2331 74.5827 39.4121 74.9076 39.7372C75.2326 40.0621 75.4116 40.4943 75.4116 40.9539C75.4116 41.4136 75.2326 41.8457 74.9076 42.1707Z" fill="#28A86A"/>
<path d="M76.1897 54.0391C74.8117 52.6615 72.5699 52.6615 71.192 54.0391C69.8143 55.417 69.8143 57.6588 71.192 59.0366C71.8809 59.7254 72.7859 60.07 73.6908 60.07C74.5958 60.07 75.5007 59.7255 76.1897 59.0366C77.5674 57.6588 77.5674 55.417 76.1897 54.0391ZM74.9076 57.7547C74.5827 58.0797 74.1505 58.2587 73.6908 58.2587C73.2312 58.2587 72.799 58.0797 72.4741 57.7547C72.149 57.4297 71.97 56.9975 71.97 56.5379C71.97 56.0783 72.149 55.6461 72.4741 55.3212C72.799 54.9961 73.2312 54.8171 73.6908 54.8171C74.1505 54.8171 74.5827 54.9961 74.9076 55.3212C75.2326 55.6461 75.4116 56.0783 75.4116 56.5379C75.4116 56.9975 75.2326 57.4297 74.9076 57.7547Z" fill="#28A86A"/>
<path d="M76.1897 69.6446C74.8117 68.2669 72.5699 68.2669 71.192 69.6446C69.8143 71.0224 69.8143 73.2642 71.192 74.6421C71.8809 75.3309 72.7859 75.6755 73.6908 75.6755C74.5958 75.6755 75.5007 75.331 76.1897 74.6421C77.5674 73.2642 77.5674 71.0224 76.1897 69.6446ZM74.9076 73.3601C74.5827 73.6852 74.1505 73.8642 73.6908 73.8642C73.2312 73.8642 72.799 73.6852 72.4741 73.3601C72.149 73.0352 71.97 72.603 71.97 72.1434C71.97 71.6838 72.149 71.2516 72.4741 70.9266C72.799 70.6016 73.2312 70.4226 73.6908 70.4226C74.1505 70.4226 74.5827 70.6016 74.9076 70.9266C75.2326 71.2516 75.4116 71.6838 75.4116 72.1434C75.4116 72.6029 75.2326 73.0352 74.9076 73.3601Z" fill="#28A86A"/>
<path d="M66.8967 73.4901C66.8566 72.9914 66.4183 72.6175 65.9205 72.6595C64.6528 72.7614 63.3429 72.8422 62.0272 72.8994C61.5271 72.9212 61.1393 73.3442 61.161 73.8444C61.1823 74.3312 61.5834 74.7115 62.066 74.7115C62.0793 74.7115 62.0927 74.7112 62.1061 74.7106C63.444 74.6524 64.7761 74.5703 66.0659 74.4664C66.5649 74.4263 66.937 73.9891 66.8967 73.4901Z" fill="#28A86A"/>
<path d="M57.2038 73.0099C57.2031 73.0099 57.2022 73.0099 57.2015 73.0099L56.9217 73.0101C49.5605 73.0101 42.6935 72.3499 37.5855 71.151C37.0992 71.0371 36.6104 71.3389 36.4959 71.8263C36.3815 72.3139 36.6839 72.8016 37.1712 72.916C42.4109 74.1458 49.4251 74.823 56.9217 74.823L57.206 74.8227C57.7066 74.8214 58.1114 74.4146 58.1102 73.914C58.1088 73.4142 57.7033 73.0099 57.2038 73.0099Z" fill="#28A86A"/>
</g>
<defs>
<clipPath id="clip0_2690_358">
<rect width="61.8457" height="61.8457" fill="white" transform="translate(26 21)"/>
</clipPath>
</defs>
</svg>
