<svg width="113" height="103" viewBox="0 0 113 103" fill="none" xmlns="http://www.w3.org/2000/svg">
<path d="M93.9959 52.4499C93.9959 51.1103 93.2636 49.8794 92.0857 49.2365L83.9451 44.8086V23.5665C83.9451 23.461 83.9451 23.2853 83.9451 23.2853C83.9451 18.6914 76.4451 15 66.8238 15C57.226 15 49.7024 18.6211 49.6555 23.2033V39.8441L43.9367 28.4885C43.2921 27.2111 42.0031 26.4142 40.5733 26.4142C39.1437 26.4142 37.8546 27.2111 37.21 28.4885L19.4793 63.6804C18.4011 65.825 19.198 68.4032 21.3074 69.5516C27.3427 72.8564 33.9522 74.5087 40.5733 74.5087C44.1681 74.5087 47.7579 73.9974 51.2553 73.0177V74.637C51.2553 75.9777 51.9867 77.2085 53.1636 77.8493L70.877 87.4923C71.4243 87.7914 72.0245 87.9419 72.6267 87.9419C73.2268 87.9419 73.8269 87.7914 74.3742 87.4944L82.7075 82.581L92.0816 77.8554C93.2656 77.2125 94 75.9817 94 74.641L93.9959 52.4499ZM71.8739 41.4316C72.1099 41.3034 72.3662 41.2393 72.6246 41.2393C72.883 41.2393 73.1434 41.3034 73.3774 41.4326L90.7797 50.8983L72.6326 60.7739L54.4709 50.8986L71.8739 41.4316ZM91.9127 52.6535V74.637C91.9127 75.2127 91.5974 75.7437 91.0908 76.0184L73.6703 85.5059V62.5811L91.9127 52.6535ZM66.8238 17.0742C75.7068 17.0742 81.8943 20.3086 81.8943 23.2032C81.8943 26.0978 75.7068 29.3205 66.8238 29.3205C57.9408 29.3205 51.7415 26.0978 51.7415 23.2032C51.7415 20.3086 57.9408 17.0742 66.8238 17.0742ZM51.7415 27.1643C54.6244 29.7073 60.2377 31.3948 66.8238 31.3948C73.3747 31.3948 78.9646 29.719 81.8592 27.1994V43.6741L74.3742 39.6027C73.2817 39.0066 71.9736 39.0066 70.8771 39.6017L54.1275 48.7138L51.7415 43.9809V27.1643ZM22.3036 67.7235C21.1902 67.1141 20.7684 65.7547 21.3426 64.6179L39.0734 29.426C39.3663 28.8401 39.9171 28.5002 40.5733 28.5002C41.2179 28.5002 41.7804 28.8401 42.0734 29.426L52.3529 49.8397C51.6611 50.518 51.2554 51.4536 51.2554 52.4499V70.8584C41.6724 73.699 31.3069 72.655 22.3036 67.7235ZM54.1594 76.0184C53.6529 75.7437 53.3386 75.2127 53.3386 74.637V52.6484L53.347 52.653L71.5817 62.5789L71.5871 62.5818V85.5072L54.1594 76.0184Z" fill="#28A86A"/>
</svg>
