<svg width="113" height="103" viewBox="0 0 113 103" fill="none" xmlns="http://www.w3.org/2000/svg">
<path d="M96.5312 51.0003C96.5312 60.549 92.8127 69.5262 86.0608 76.2781C85.8929 76.4459 85.673 76.5298 85.453 76.5298C85.233 76.5298 85.0132 76.4459 84.8453 76.2781C84.5098 75.9425 84.5098 75.3983 84.8453 75.0628C91.2727 68.6354 94.8125 60.0899 94.8125 51.0003C94.8125 41.9107 91.2727 33.3652 84.8455 26.9378C84.51 26.6021 84.51 26.058 84.8455 25.7225C85.1811 25.387 85.7251 25.387 86.0608 25.7225C92.8127 32.4744 96.5312 41.4516 96.5312 51.0003ZM78.0614 33.7219C77.7257 33.3864 77.1817 33.3864 76.8461 33.7219C76.5104 34.0575 76.5104 34.6017 76.8461 34.9372C81.1367 39.2277 83.4997 44.9324 83.4997 51.0003C83.4997 57.0682 81.1367 62.7729 76.8461 67.0634C76.5104 67.3991 76.5104 67.9432 76.8461 68.2787C77.014 68.4465 77.2338 68.5303 77.4538 68.5303C77.6736 68.5303 77.8936 68.4465 78.0616 68.2787C82.6768 63.6635 85.2186 57.5273 85.2186 51.0003C85.2186 44.4733 82.6766 38.3371 78.0614 33.7219ZM73.9056 51.0003C73.9056 56.5582 70.4753 61.4309 65.306 63.3208V71.8145C65.306 75.7242 62.1253 78.9049 58.2157 78.9049H44.0301C43.5556 78.9049 43.1708 78.5201 43.1708 78.0455V65.3199H34.207L30.9195 70.6147C30.7628 70.8672 30.4866 71.0208 30.1894 71.0208H26.7785C26.3738 73.2004 24.4582 74.8557 22.163 74.8557C19.5746 74.8557 17.4688 72.7499 17.4688 70.1614C17.4688 67.573 19.5746 65.4672 22.163 65.4672C24.458 65.4672 26.3738 67.1225 26.7785 69.3021H29.7112L32.9987 64.0073C33.1554 63.7548 33.4316 63.6011 33.7288 63.6011H43.1706V51.8597H26.7785C26.3738 54.0392 24.4582 55.6945 22.163 55.6945C19.5746 55.6945 17.4688 53.5887 17.4688 51.0003C17.4688 48.4119 19.5746 46.306 22.163 46.306C24.458 46.306 26.3738 47.9614 26.7785 50.1409H43.1708V38.3993H33.6271C33.3326 38.3993 33.0588 38.2485 32.9012 37.9998L29.5412 32.6985H26.7785C26.3738 34.8781 24.4582 36.5334 22.163 36.5334C19.5746 36.5334 17.4688 34.4276 17.4688 31.8392C17.4688 29.2507 19.5746 27.1449 22.163 27.1449C24.458 27.1449 26.3738 28.8002 26.7785 30.9798H30.0142C30.3087 30.9798 30.5825 31.1305 30.7401 31.3792L34.0997 36.6805H43.1706V23.9551C43.1706 23.4805 43.5554 23.0957 44.03 23.0957H58.2155C62.1251 23.0957 65.3059 26.2764 65.3059 30.1861V38.6798C70.4753 40.5697 73.9056 45.4424 73.9056 51.0003ZM25.1385 31.8392C25.1385 30.1984 23.8037 28.8637 22.163 28.8637C20.5223 28.8637 19.1875 30.1984 19.1875 31.8392C19.1875 33.4799 20.5223 34.8147 22.163 34.8147C23.8037 34.8147 25.1385 33.4799 25.1385 31.8392ZM25.1385 51.0003C25.1385 49.3596 23.8037 48.0248 22.163 48.0248C20.5223 48.0248 19.1875 49.3596 19.1875 51.0003C19.1875 52.641 20.5223 53.9758 22.163 53.9758C23.8037 53.9758 25.1385 52.641 25.1385 51.0003ZM25.1385 70.1614C25.1385 68.5207 23.8037 67.1859 22.163 67.1859C20.5223 67.1859 19.1875 68.5207 19.1875 70.1614C19.1875 71.8022 20.5223 73.1369 22.163 73.1369C23.8037 73.1369 25.1385 71.8022 25.1385 70.1614ZM63.5873 30.1859C63.5873 27.224 61.1776 24.8143 58.2157 24.8143H44.8895V77.1861H58.2157C61.1776 77.1861 63.5873 74.7765 63.5873 71.8145V30.1859ZM72.1869 51.0003C72.1869 46.3858 69.4657 42.3156 65.306 40.5292V61.4714C69.4657 59.685 72.1869 55.6148 72.1869 51.0003Z" fill="#28A86A"/>
</svg>
