<svg width="113" height="103" viewBox="0 0 113 103" fill="none" xmlns="http://www.w3.org/2000/svg">
<path d="M89.3125 21.0312H23.6875C23.3767 21.0312 23.0786 21.1547 22.8589 21.3745C22.6391 21.5943 22.5156 21.8923 22.5156 22.2031V66.7344C22.5156 67.0452 22.6391 67.3432 22.8589 67.563C23.0786 67.7828 23.3767 67.9062 23.6875 67.9062H24.8594V80.7969C24.8594 81.1077 24.9828 81.4057 25.2026 81.6255C25.4224 81.8453 25.7204 81.9688 26.0312 81.9688H86.9688C87.2796 81.9688 87.5776 81.8453 87.7974 81.6255C88.0172 81.4057 88.1406 81.1077 88.1406 80.7969V67.9062H89.3125C89.6233 67.9062 89.9214 67.7828 90.1411 67.563C90.3609 67.3432 90.4844 67.0452 90.4844 66.7344V22.2031C90.4844 21.8923 90.3609 21.5943 90.1411 21.3745C89.9214 21.1547 89.6233 21.0312 89.3125 21.0312ZM85.7969 79.625H27.2031V67.9062H31.8906V70.4503C31.1087 70.7267 30.4497 71.2707 30.0301 71.986C29.6105 72.7013 29.4573 73.542 29.5975 74.3593C29.7377 75.1767 30.1624 75.9182 30.7965 76.4527C31.4306 76.9873 32.2332 77.2805 33.0625 77.2805C33.8918 77.2805 34.6944 76.9873 35.3285 76.4527C35.9626 75.9182 36.3873 75.1767 36.5275 74.3593C36.6677 73.542 36.5145 72.7013 36.0949 71.986C35.6753 71.2707 35.0163 70.7267 34.2344 70.4503V67.9062H41.2656V70.4503C40.4837 70.7267 39.8247 71.2707 39.4051 71.986C38.9855 72.7013 38.8323 73.542 38.9725 74.3593C39.1127 75.1767 39.5374 75.9182 40.1715 76.4527C40.8056 76.9873 41.6082 77.2805 42.4375 77.2805C43.2668 77.2805 44.0694 76.9873 44.7035 76.4527C45.3376 75.9182 45.7623 75.1767 45.9025 74.3593C46.0427 73.542 45.8895 72.7013 45.4699 71.986C45.0503 71.2707 44.3913 70.7267 43.6094 70.4503V67.9062H50.6406V70.4503C49.8587 70.7267 49.1997 71.2707 48.7801 71.986C48.3605 72.7013 48.2073 73.542 48.3475 74.3593C48.4877 75.1767 48.9124 75.9182 49.5465 76.4527C50.1806 76.9873 50.9832 77.2805 51.8125 77.2805C52.6418 77.2805 53.4444 76.9873 54.0785 76.4527C54.7126 75.9182 55.1373 75.1767 55.2775 74.3593C55.4177 73.542 55.2645 72.7013 54.8449 71.986C54.4253 71.2707 53.7663 70.7267 52.9844 70.4503V67.9062H60.0156V70.4503C59.2337 70.7267 58.5747 71.2707 58.1551 71.986C57.7355 72.7013 57.5823 73.542 57.7225 74.3593C57.8627 75.1767 58.2874 75.9182 58.9215 76.4527C59.5556 76.9873 60.3582 77.2805 61.1875 77.2805C62.0168 77.2805 62.8194 76.9873 63.4535 76.4527C64.0876 75.9182 64.5123 75.1767 64.6525 74.3593C64.7927 73.542 64.6395 72.7013 64.2199 71.986C63.8003 71.2707 63.1413 70.7267 62.3594 70.4503V67.9062H69.3906V70.4503C68.6087 70.7267 67.9497 71.2707 67.5301 71.986C67.1105 72.7013 66.9573 73.542 67.0975 74.3593C67.2377 75.1767 67.6624 75.9182 68.2965 76.4527C68.9306 76.9873 69.7332 77.2805 70.5625 77.2805C71.3918 77.2805 72.1944 76.9873 72.8285 76.4527C73.4626 75.9182 73.8873 75.1767 74.0275 74.3593C74.1677 73.542 74.0145 72.7013 73.5949 71.986C73.1753 71.2707 72.5163 70.7267 71.7344 70.4503V67.9062H78.7656V70.4503C77.9837 70.7267 77.3247 71.2707 76.9051 71.986C76.4855 72.7013 76.3323 73.542 76.4725 74.3593C76.6127 75.1767 77.0374 75.9182 77.6715 76.4527C78.3056 76.9873 79.1082 77.2805 79.9375 77.2805C80.7668 77.2805 81.5694 76.9873 82.2035 76.4527C82.8376 75.9182 83.2623 75.1767 83.4025 74.3593C83.5427 73.542 83.3895 72.7013 82.9699 71.986C82.5503 71.2707 81.8913 70.7267 81.1094 70.4503V67.9062H85.7969V79.625ZM34.2344 73.7656C34.2344 73.9974 34.1656 74.224 34.0369 74.4167C33.9081 74.6094 33.7251 74.7596 33.511 74.8483C33.2968 74.937 33.0612 74.9602 32.8339 74.915C32.6066 74.8698 32.3977 74.7582 32.2339 74.5943C32.07 74.4304 31.9584 74.2216 31.9131 73.9942C31.8679 73.7669 31.8911 73.5313 31.9798 73.3172C32.0685 73.103 32.2187 72.92 32.4114 72.7912C32.6042 72.6625 32.8307 72.5938 33.0625 72.5938C33.3732 72.5939 33.6712 72.7175 33.8909 72.9372C34.1107 73.1569 34.2342 73.4549 34.2344 73.7656ZM43.6094 73.7656C43.6094 73.9974 43.5406 74.224 43.4119 74.4167C43.2831 74.6094 43.1001 74.7596 42.886 74.8483C42.6718 74.937 42.4362 74.9602 42.2089 74.915C41.9816 74.8698 41.7727 74.7582 41.6089 74.5943C41.445 74.4304 41.3334 74.2216 41.2881 73.9942C41.2429 73.7669 41.2661 73.5313 41.3548 73.3172C41.4435 73.103 41.5937 72.92 41.7864 72.7912C41.9792 72.6625 42.2057 72.5938 42.4375 72.5938C42.7482 72.5939 43.0462 72.7175 43.2659 72.9372C43.4857 73.1569 43.6092 73.4549 43.6094 73.7656ZM52.9844 73.7656C52.9844 73.9974 52.9156 74.224 52.7869 74.4167C52.6581 74.6094 52.4751 74.7596 52.261 74.8483C52.0468 74.937 51.8112 74.9602 51.5839 74.915C51.3566 74.8698 51.1477 74.7582 50.9839 74.5943C50.82 74.4304 50.7084 74.2216 50.6631 73.9942C50.6179 73.7669 50.6411 73.5313 50.7298 73.3172C50.8185 73.103 50.9687 72.92 51.1614 72.7912C51.3542 72.6625 51.5807 72.5938 51.8125 72.5938C52.1232 72.5939 52.4212 72.7175 52.6409 72.9372C52.8607 73.1569 52.9842 73.4549 52.9844 73.7656ZM62.3594 73.7656C62.3594 73.9974 62.2906 74.224 62.1619 74.4167C62.0331 74.6094 61.8501 74.7596 61.636 74.8483C61.4218 74.937 61.1862 74.9602 60.9589 74.915C60.7316 74.8698 60.5227 74.7582 60.3589 74.5943C60.195 74.4304 60.0834 74.2216 60.0381 73.9942C59.9929 73.7669 60.0161 73.5313 60.1048 73.3172C60.1935 73.103 60.3437 72.92 60.5364 72.7912C60.7292 72.6625 60.9557 72.5938 61.1875 72.5938C61.4982 72.5939 61.7962 72.7175 62.0159 72.9372C62.2357 73.1569 62.3592 73.4549 62.3594 73.7656ZM71.7344 73.7656C71.7344 73.9974 71.6656 74.224 71.5369 74.4167C71.4081 74.6094 71.2251 74.7596 71.011 74.8483C70.7968 74.937 70.5612 74.9602 70.3339 74.915C70.1066 74.8698 69.8977 74.7582 69.7339 74.5943C69.57 74.4304 69.4584 74.2216 69.4131 73.9942C69.3679 73.7669 69.3911 73.5313 69.4798 73.3172C69.5685 73.103 69.7187 72.92 69.9114 72.7912C70.1042 72.6625 70.3307 72.5938 70.5625 72.5938C70.8732 72.5939 71.1712 72.7175 71.3909 72.9372C71.6107 73.1569 71.7342 73.4549 71.7344 73.7656ZM81.1094 73.7656C81.1094 73.9974 81.0406 74.224 80.9119 74.4167C80.7831 74.6094 80.6001 74.7596 80.386 74.8483C80.1718 74.937 79.9362 74.9602 79.7089 74.915C79.4816 74.8698 79.2727 74.7582 79.1089 74.5943C78.945 74.4304 78.8334 74.2216 78.7881 73.9942C78.7429 73.7669 78.7661 73.5313 78.8548 73.3172C78.9435 73.103 79.0937 72.92 79.2864 72.7912C79.4792 72.6625 79.7057 72.5938 79.9375 72.5938C80.2482 72.5939 80.5462 72.7175 80.7659 72.9372C80.9857 73.1569 81.1092 73.4549 81.1094 73.7656ZM88.1406 65.5625H24.8594V23.375H88.1406V65.5625Z" fill="#28A86A"/>
<path d="M30.7188 49.1562H56.5C56.8108 49.1562 57.1089 49.0328 57.3286 48.813C57.5484 48.5932 57.6719 48.2952 57.6719 47.9844V29.2344C57.6719 28.9236 57.5484 28.6255 57.3286 28.4057C57.1089 28.186 56.8108 28.0625 56.5 28.0625H30.7188C30.4079 28.0625 30.1099 28.186 29.8901 28.4057C29.6703 28.6255 29.5469 28.9236 29.5469 29.2344V47.9844C29.5469 48.2952 29.6703 48.5932 29.8901 48.813C30.1099 49.0328 30.4079 49.1562 30.7188 49.1562ZM31.8906 30.4062H55.3281V46.8125H31.8906V30.4062Z" fill="#28A86A"/>
<path d="M30.7188 60.875H40.0938C40.4046 60.875 40.7026 60.7515 40.9224 60.5318C41.1422 60.312 41.2656 60.0139 41.2656 59.7031V55.0156C41.2656 54.7048 41.1422 54.4068 40.9224 54.187C40.7026 53.9672 40.4046 53.8438 40.0938 53.8438H30.7188C30.4079 53.8438 30.1099 53.9672 29.8901 54.187C29.6703 54.4068 29.5469 54.7048 29.5469 55.0156V59.7031C29.5469 60.0139 29.6703 60.312 29.8901 60.5318C30.1099 60.7515 30.4079 60.875 30.7188 60.875ZM31.8906 56.1875H38.9219V58.5312H31.8906V56.1875Z" fill="#28A86A"/>
<path d="M56.5 53.8438H47.125C46.8142 53.8438 46.5161 53.9672 46.2964 54.187C46.0766 54.4068 45.9531 54.7048 45.9531 55.0156V59.7031C45.9531 60.0139 46.0766 60.312 46.2964 60.5318C46.5161 60.7515 46.8142 60.875 47.125 60.875H56.5C56.8108 60.875 57.1089 60.7515 57.3286 60.5318C57.5484 60.312 57.6719 60.0139 57.6719 59.7031V55.0156C57.6719 54.7048 57.5484 54.4068 57.3286 54.187C57.1089 53.9672 56.8108 53.8438 56.5 53.8438ZM55.3281 58.5312H48.2969V56.1875H55.3281V58.5312Z" fill="#28A86A"/>
<path d="M72.9062 49.1563C74.9922 49.1563 77.0314 48.5377 78.7658 47.3788C80.5002 46.2199 81.852 44.5727 82.6503 42.6455C83.4486 40.7183 83.6574 38.5977 83.2505 36.5518C82.8435 34.5059 81.839 32.6266 80.364 31.1516C78.889 29.6766 77.0097 28.6721 74.9638 28.2652C72.918 27.8582 70.7973 28.0671 68.8701 28.8653C66.9429 29.6636 65.2957 31.0154 64.1368 32.7498C62.9779 34.4843 62.3594 36.5234 62.3594 38.6094C62.3625 41.4056 63.4747 44.0865 65.4519 46.0637C67.4292 48.041 70.11 49.1532 72.9062 49.1563ZM72.9062 30.4063C74.5287 30.4063 76.1147 30.8874 77.4637 31.7887C78.8127 32.6901 79.8641 33.9713 80.4849 35.4702C81.1058 36.9691 81.2683 38.6185 80.9518 40.2097C80.6352 41.801 79.854 43.2626 78.7067 44.4099C77.5595 45.5571 76.0978 46.3384 74.5066 46.6549C72.9153 46.9714 71.266 46.809 69.7671 46.1881C68.2681 45.5672 66.987 44.5158 66.0856 43.1668C65.1842 41.8178 64.7031 40.2318 64.7031 38.6094C64.7058 36.4346 65.5709 34.3496 67.1087 32.8118C68.6465 31.274 70.7315 30.4089 72.9062 30.4063Z" fill="#28A86A"/>
</svg>
