<svg width="113" height="103" viewBox="0 0 113 103" fill="none" xmlns="http://www.w3.org/2000/svg">
<mask id="mask0_2690_365" style="mask-type:luminance" maskUnits="userSpaceOnUse" x="18" y="12" width="78" height="78">
<path d="M18 12H96V90H18V12Z" fill="white"/>
</mask>
<g mask="url(#mask0_2690_365)">
<path d="M60.3372 40.5664L61.5279 39.3781L64.6441 36.2689C66.2522 34.6645 66.2522 32.0365 64.6441 30.432C63.0361 28.8274 60.4024 28.8274 58.7942 30.432L54.4873 34.7295" stroke="#28A86A" stroke-width="2" stroke-miterlimit="10" stroke-linecap="round" stroke-linejoin="round"/>
<path d="M80.3732 49.034C78.9651 47.6289 76.6573 47.6289 75.2492 49.034L69.7773 54.498C68.3692 55.903 68.3692 58.2014 69.7773 59.6064C71.1854 61.0114 73.489 61.0114 74.8972 59.6064L80.3732 54.1424C81.7815 52.7375 81.7815 50.4391 80.3732 49.034Z" stroke="#28A86A" stroke-width="2" stroke-miterlimit="10" stroke-linecap="round" stroke-linejoin="round"/>
<path d="M69.9469 42.651C69.3992 43.1974 70.5249 42.0742 70.5423 42.057C72.1024 40.4481 72.0852 37.8592 70.4944 36.2676C68.8864 34.6632 66.2526 34.6632 64.6444 36.2676L62.4888 38.4186" stroke="#28A86A" stroke-width="2" stroke-miterlimit="10" stroke-linecap="round" stroke-linejoin="round"/>
<path d="M69.3079 76.8372C69.2253 74.8727 69.599 72.8866 70.4379 71.0698L51.5321 52.2015M73.276 60.5364L77.1353 64.387C81.751 62.2708 87.4226 63.1035 91.2125 66.8849C94.2375 69.9031 95.3806 74.1182 94.6374 78.0384C93.8593 82.1537 91.6864 79.0401 91.2429 78.5978L85.9362 73.303C84.0805 71.4512 81.0947 71.3732 79.1433 73.0731C77.4395 75.0202 77.5178 77.9994 79.3735 79.8512L84.6803 85.146C85.1236 85.5883 88.2442 87.7566 84.1196 88.5328C80.1907 89.2744 75.9662 88.1338 72.9414 85.1155C71.9981 84.1703 71.2376 83.1121 70.6596 81.9847M48.2986 35.6187L43.5612 30.8876C45.6821 26.2822 44.8475 20.6231 41.0577 16.8418C38.0329 13.8235 33.8086 12.6829 29.8795 13.4245C25.7549 14.2007 28.8755 16.369 29.3188 16.8113L34.6256 22.1062C36.4813 23.9579 36.5596 26.9371 34.8559 28.8841C32.9044 30.5841 29.9186 30.5059 28.0629 28.6544L22.7562 23.3595C22.3129 22.9171 20.1398 19.8035 19.3617 23.9189C18.6187 27.8392 19.7616 32.0542 22.7866 35.0724C26.5765 38.8538 32.2481 39.6865 36.8638 37.5703L41.8793 42.5745" stroke="#28A86A" stroke-width="2" stroke-miterlimit="10" stroke-linecap="round" stroke-linejoin="round"/>
<path d="M39.9718 72.0074L46.5258 78.5468C47.5385 79.5573 47.5385 81.2094 46.5258 82.2199L40.6977 88.0352C39.6849 89.0456 38.0291 89.0456 37.0165 88.0352L20.9226 71.9771C19.9099 70.9666 19.9099 69.3144 20.9226 68.304L26.7508 62.4888C27.7634 61.4783 29.4192 61.4783 30.432 62.4888L36.195 68.2391" stroke="#28A86A" stroke-width="2" stroke-miterlimit="10" stroke-linecap="round" stroke-linejoin="round"/>
<path d="M46.5254 78.5469L54.2876 70.8019C57.1952 67.9008 57.7601 68.5252 61.1937 69.0153C62.7322 69.2364 64.927 68.4168 66.6916 67.3327" stroke="#28A86A" stroke-width="2" stroke-miterlimit="10" stroke-linecap="round" stroke-linejoin="round"/>
<path d="M75.2494 43.1959C73.6413 41.5914 71.0075 41.5914 69.3995 43.1959L65.1097 47.476C63.4973 49.0849 63.4973 51.7084 65.1097 53.3129C66.7178 54.9218 69.3516 54.9218 70.9597 53.3129L75.2494 49.0328C76.8618 47.4283 76.8618 44.8003 75.2494 43.1959Z" stroke="#28A86A" stroke-width="2" stroke-miterlimit="10" stroke-linecap="round" stroke-linejoin="round"/>
<path d="M65.6403 46.9525C65.7578 45.8121 63.8714 44.0905 61.933 42.1563L53.4103 33.6525C52.5497 32.7939 51.1328 32.7939 50.268 33.6569L43.2314 40.6777C41.6321 42.2735 40.9149 44.6196 41.041 46.7271C41.2367 49.9534 39.7327 53.2145 35.2736 57.6594L30.4321 62.4902M51.511 43.4313C51.5848 43.5093 54.4663 46.3802 54.5402 46.4539C56.8219 48.6568 61.4245 50.5561 64.3929 48.44" stroke="#28A86A" stroke-width="2" stroke-miterlimit="10" stroke-linecap="round" stroke-linejoin="round"/>
<path d="M51.5104 43.4315C54.0527 45.9683 53.3487 50.7819 49.9414 54.1816" stroke="#28A86A" stroke-width="2" stroke-miterlimit="10" stroke-linecap="round" stroke-linejoin="round"/>
</g>
</svg>
