<svg width="113" height="103" viewBox="0 0 113 103" fill="none" xmlns="http://www.w3.org/2000/svg">
<path d="M72.0654 74.8223H35.21C34.5857 74.8223 34.0811 75.327 34.0811 75.9512C34.0811 76.5754 34.5857 77.0801 35.21 77.0801H72.0654C72.6897 77.0801 73.1943 76.5754 73.1943 75.9512C73.1943 75.327 72.6897 74.8223 72.0654 74.8223Z" fill="#28A86A"/>
<path d="M80.499 32.016C79.8748 32.016 79.3701 32.5207 79.3701 33.1449V78.2481C79.3701 81.3426 76.8467 83.866 73.7521 83.866H34.4529C31.3584 83.866 28.835 81.3426 28.835 78.2481V27.8191C28.835 24.7246 31.3584 22.2012 34.4529 22.2012H71.2818C71.9061 22.2012 72.4107 21.6965 72.4107 21.0723C72.4107 20.448 71.9061 19.9434 71.2818 19.9434H34.4529C32.3545 19.9434 30.3756 20.7668 28.8881 22.2543C27.4006 23.7418 26.5771 25.7207 26.5771 27.8191V78.2348C26.5771 80.3332 27.4006 82.3121 28.8881 83.7996C30.3756 85.2871 32.3545 86.1106 34.4529 86.1106H73.7654C75.8639 86.1106 77.8428 85.2871 79.3303 83.7996C80.8178 82.3121 81.6412 80.3332 81.6412 78.2348V33.1449C81.6279 32.5207 81.1232 32.016 80.499 32.016Z" fill="#28A86A"/>
<path d="M72.0654 46.3066H35.21C34.5857 46.3066 34.0811 46.8113 34.0811 47.4355C34.0811 48.0598 34.5857 48.5645 35.21 48.5645H72.0654C72.6897 48.5645 73.1943 48.0598 73.1943 47.4355C73.1943 46.8113 72.6897 46.3066 72.0654 46.3066Z" fill="#28A86A"/>
<path d="M72.0654 53.4395H35.21C34.5857 53.4395 34.0811 53.9441 34.0811 54.5684C34.0811 55.1926 34.5857 55.6973 35.21 55.6973H72.0654C72.6897 55.6973 73.1943 55.1926 73.1943 54.5684C73.1943 53.9441 72.6897 53.4395 72.0654 53.4395Z" fill="#28A86A"/>
<path d="M72.0654 60.5566H35.21C34.5857 60.5566 34.0811 61.0613 34.0811 61.6855C34.0811 62.3098 34.5857 62.8145 35.21 62.8145H72.0654C72.6897 62.8145 73.1943 62.3098 73.1943 61.6855C73.1943 61.0613 72.6897 60.5566 72.0654 60.5566Z" fill="#28A86A"/>
<path d="M72.0654 67.6895H35.21C34.5857 67.6895 34.0811 68.1941 34.0811 68.8184C34.0811 69.4426 34.5857 69.9473 35.21 69.9473H72.0654C72.6897 69.9473 73.1943 69.4426 73.1943 68.8184C73.1943 68.1941 72.6897 67.6895 72.0654 67.6895Z" fill="#28A86A"/>
</svg>
