<svg width="1440" height="797" viewBox="0 0 1440 797" fill="none" xmlns="http://www.w3.org/2000/svg">
<rect x="0.5" y="89.7783" width="1438.52" height="706.722" fill="#C4C4C4" stroke="black"/>
<rect x="58.2715" y="147.549" width="1322.97" height="588.768" fill="white" stroke="black"/>
<path d="M923.17 706.731H515.146V604.424H655.969L671.616 657.383H765.497L778.737 604.424H923.17V706.731Z" fill="#C4C4C4" stroke="black"/>
<path d="M515.145 180.751L923.168 180.751L923.168 283.058L782.346 283.058L766.699 230.099L672.817 230.099L659.578 283.058L515.145 283.058L515.145 180.751Z" fill="#C4C4C4" stroke="black"/>
<rect x="640.096" y="431.498" width="158.876" height="24.0722" fill="#00BFAB"/>
<rect x="305.709" y="443.134" width="158.876" height="24.0722" fill="#00BFAB"/>
<rect x="965.295" y="443.134" width="158.876" height="24.0722" fill="#00BFAB"/>
<rect x="1148.24" y="390.18" width="158.876" height="24.0722" transform="rotate(-90 1148.24 390.18)" fill="#00BFAB"/>
<rect x="1172.31" y="443.134" width="158.876" height="24.0722" fill="#00BFAB"/>
<rect x="58.0312" y="147.311" width="1322.97" height="588.768" fill="white" stroke="black"/>
<path d="M923.17 706.731H515.146V604.424H655.969L671.616 657.383H765.497L778.737 604.424H923.17V706.731Z" fill="#C4C4C4" stroke="black"/>
<path d="M515.145 180.751L923.168 180.751L923.168 283.058L782.346 283.058L766.699 230.099L672.817 230.099L659.578 283.058L515.145 283.058L515.145 180.751Z" fill="#C4C4C4" stroke="black"/>
<rect x="99.3027" y="441.562" width="158.876" height="24.0722" fill="#00BFAB"/>
<rect x="305.787" y="441.562" width="158.876" height="24.0722" fill="#00BFAB"/>
<rect x="965.432" y="441.562" width="158.876" height="24.0722" fill="#00BFAB"/>
<rect x="1148.24" y="390.335" width="158.876" height="24.0722" transform="rotate(-90 1148.24 390.335)" fill="#00BFAB"/>
<rect x="1172.71" y="441.562" width="158.876" height="24.0722" fill="#00BFAB"/>
<path d="M177.422 515.211C177.422 514.508 177.312 513.883 177.094 513.336C176.891 512.789 176.523 512.289 175.992 511.836C175.461 511.383 174.711 510.945 173.742 510.523C172.789 510.086 171.57 509.641 170.086 509.188C168.461 508.688 166.961 508.133 165.586 507.523C164.227 506.898 163.039 506.18 162.023 505.367C161.008 504.539 160.219 503.594 159.656 502.531C159.094 501.453 158.812 500.211 158.812 498.805C158.812 497.414 159.102 496.148 159.68 495.008C160.273 493.867 161.109 492.883 162.188 492.055C163.281 491.211 164.57 490.562 166.055 490.109C167.539 489.641 169.18 489.406 170.977 489.406C173.508 489.406 175.688 489.875 177.516 490.812C179.359 491.75 180.773 493.008 181.758 494.586C182.758 496.164 183.258 497.906 183.258 499.812H177.422C177.422 498.688 177.18 497.695 176.695 496.836C176.227 495.961 175.508 495.273 174.539 494.773C173.586 494.273 172.375 494.023 170.906 494.023C169.516 494.023 168.359 494.234 167.438 494.656C166.516 495.078 165.828 495.648 165.375 496.367C164.922 497.086 164.695 497.898 164.695 498.805C164.695 499.445 164.844 500.031 165.141 500.562C165.438 501.078 165.891 501.562 166.5 502.016C167.109 502.453 167.875 502.867 168.797 503.258C169.719 503.648 170.805 504.023 172.055 504.383C173.945 504.945 175.594 505.57 177 506.258C178.406 506.93 179.578 507.695 180.516 508.555C181.453 509.414 182.156 510.391 182.625 511.484C183.094 512.562 183.328 513.789 183.328 515.164C183.328 516.602 183.039 517.898 182.461 519.055C181.883 520.195 181.055 521.172 179.977 521.984C178.914 522.781 177.633 523.398 176.133 523.836C174.648 524.258 172.992 524.469 171.164 524.469C169.523 524.469 167.906 524.25 166.312 523.812C164.734 523.375 163.297 522.711 162 521.82C160.703 520.914 159.672 519.789 158.906 518.445C158.141 517.086 157.758 515.5 157.758 513.688H163.641C163.641 514.797 163.828 515.742 164.203 516.523C164.594 517.305 165.133 517.945 165.82 518.445C166.508 518.93 167.305 519.289 168.211 519.523C169.133 519.758 170.117 519.875 171.164 519.875C172.539 519.875 173.688 519.68 174.609 519.289C175.547 518.898 176.25 518.352 176.719 517.648C177.188 516.945 177.422 516.133 177.422 515.211ZM203.062 489.758V524H197.414V496.461L189.047 499.297V494.633L202.383 489.758H203.062Z" fill="black"/>
<path d="M384.422 515.211C384.422 514.508 384.312 513.883 384.094 513.336C383.891 512.789 383.523 512.289 382.992 511.836C382.461 511.383 381.711 510.945 380.742 510.523C379.789 510.086 378.57 509.641 377.086 509.188C375.461 508.688 373.961 508.133 372.586 507.523C371.227 506.898 370.039 506.18 369.023 505.367C368.008 504.539 367.219 503.594 366.656 502.531C366.094 501.453 365.812 500.211 365.812 498.805C365.812 497.414 366.102 496.148 366.68 495.008C367.273 493.867 368.109 492.883 369.188 492.055C370.281 491.211 371.57 490.562 373.055 490.109C374.539 489.641 376.18 489.406 377.977 489.406C380.508 489.406 382.688 489.875 384.516 490.812C386.359 491.75 387.773 493.008 388.758 494.586C389.758 496.164 390.258 497.906 390.258 499.812H384.422C384.422 498.688 384.18 497.695 383.695 496.836C383.227 495.961 382.508 495.273 381.539 494.773C380.586 494.273 379.375 494.023 377.906 494.023C376.516 494.023 375.359 494.234 374.438 494.656C373.516 495.078 372.828 495.648 372.375 496.367C371.922 497.086 371.695 497.898 371.695 498.805C371.695 499.445 371.844 500.031 372.141 500.562C372.438 501.078 372.891 501.562 373.5 502.016C374.109 502.453 374.875 502.867 375.797 503.258C376.719 503.648 377.805 504.023 379.055 504.383C380.945 504.945 382.594 505.57 384 506.258C385.406 506.93 386.578 507.695 387.516 508.555C388.453 509.414 389.156 510.391 389.625 511.484C390.094 512.562 390.328 513.789 390.328 515.164C390.328 516.602 390.039 517.898 389.461 519.055C388.883 520.195 388.055 521.172 386.977 521.984C385.914 522.781 384.633 523.398 383.133 523.836C381.648 524.258 379.992 524.469 378.164 524.469C376.523 524.469 374.906 524.25 373.312 523.812C371.734 523.375 370.297 522.711 369 521.82C367.703 520.914 366.672 519.789 365.906 518.445C365.141 517.086 364.758 515.5 364.758 513.688H370.641C370.641 514.797 370.828 515.742 371.203 516.523C371.594 517.305 372.133 517.945 372.82 518.445C373.508 518.93 374.305 519.289 375.211 519.523C376.133 519.758 377.117 519.875 378.164 519.875C379.539 519.875 380.688 519.68 381.609 519.289C382.547 518.898 383.25 518.352 383.719 517.648C384.188 516.945 384.422 516.133 384.422 515.211ZM417.516 519.5V524H394.641V520.133L405.75 508.016C406.969 506.641 407.93 505.453 408.633 504.453C409.336 503.453 409.828 502.555 410.109 501.758C410.406 500.945 410.555 500.156 410.555 499.391C410.555 498.312 410.352 497.367 409.945 496.555C409.555 495.727 408.977 495.078 408.211 494.609C407.445 494.125 406.516 493.883 405.422 493.883C404.156 493.883 403.094 494.156 402.234 494.703C401.375 495.25 400.727 496.008 400.289 496.977C399.852 497.93 399.633 499.023 399.633 500.258H393.984C393.984 498.273 394.438 496.461 395.344 494.82C396.25 493.164 397.562 491.852 399.281 490.883C401 489.898 403.07 489.406 405.492 489.406C407.773 489.406 409.711 489.789 411.305 490.555C412.898 491.32 414.109 492.406 414.938 493.812C415.781 495.219 416.203 496.883 416.203 498.805C416.203 499.867 416.031 500.922 415.688 501.969C415.344 503.016 414.852 504.062 414.211 505.109C413.586 506.141 412.844 507.18 411.984 508.227C411.125 509.258 410.18 510.305 409.148 511.367L401.766 519.5H417.516Z" fill="black"/>
<path d="M1043.42 515.211C1043.42 514.508 1043.31 513.883 1043.09 513.336C1042.89 512.789 1042.52 512.289 1041.99 511.836C1041.46 511.383 1040.71 510.945 1039.74 510.523C1038.79 510.086 1037.57 509.641 1036.09 509.188C1034.46 508.688 1032.96 508.133 1031.59 507.523C1030.23 506.898 1029.04 506.18 1028.02 505.367C1027.01 504.539 1026.22 503.594 1025.66 502.531C1025.09 501.453 1024.81 500.211 1024.81 498.805C1024.81 497.414 1025.1 496.148 1025.68 495.008C1026.27 493.867 1027.11 492.883 1028.19 492.055C1029.28 491.211 1030.57 490.562 1032.05 490.109C1033.54 489.641 1035.18 489.406 1036.98 489.406C1039.51 489.406 1041.69 489.875 1043.52 490.812C1045.36 491.75 1046.77 493.008 1047.76 494.586C1048.76 496.164 1049.26 497.906 1049.26 499.812H1043.42C1043.42 498.688 1043.18 497.695 1042.7 496.836C1042.23 495.961 1041.51 495.273 1040.54 494.773C1039.59 494.273 1038.38 494.023 1036.91 494.023C1035.52 494.023 1034.36 494.234 1033.44 494.656C1032.52 495.078 1031.83 495.648 1031.38 496.367C1030.92 497.086 1030.7 497.898 1030.7 498.805C1030.7 499.445 1030.84 500.031 1031.14 500.562C1031.44 501.078 1031.89 501.562 1032.5 502.016C1033.11 502.453 1033.88 502.867 1034.8 503.258C1035.72 503.648 1036.8 504.023 1038.05 504.383C1039.95 504.945 1041.59 505.57 1043 506.258C1044.41 506.93 1045.58 507.695 1046.52 508.555C1047.45 509.414 1048.16 510.391 1048.62 511.484C1049.09 512.562 1049.33 513.789 1049.33 515.164C1049.33 516.602 1049.04 517.898 1048.46 519.055C1047.88 520.195 1047.05 521.172 1045.98 521.984C1044.91 522.781 1043.63 523.398 1042.13 523.836C1040.65 524.258 1038.99 524.469 1037.16 524.469C1035.52 524.469 1033.91 524.25 1032.31 523.812C1030.73 523.375 1029.3 522.711 1028 521.82C1026.7 520.914 1025.67 519.789 1024.91 518.445C1024.14 517.086 1023.76 515.5 1023.76 513.688H1029.64C1029.64 514.797 1029.83 515.742 1030.2 516.523C1030.59 517.305 1031.13 517.945 1031.82 518.445C1032.51 518.93 1033.3 519.289 1034.21 519.523C1035.13 519.758 1036.12 519.875 1037.16 519.875C1038.54 519.875 1039.69 519.68 1040.61 519.289C1041.55 518.898 1042.25 518.352 1042.72 517.648C1043.19 516.945 1043.42 516.133 1043.42 515.211ZM1060.27 504.383H1063.65C1064.96 504.383 1066.05 504.156 1066.91 503.703C1067.78 503.25 1068.43 502.625 1068.85 501.828C1069.27 501.031 1069.48 500.117 1069.48 499.086C1069.48 498.008 1069.29 497.086 1068.9 496.32C1068.52 495.539 1067.95 494.938 1067.16 494.516C1066.4 494.094 1065.42 493.883 1064.23 493.883C1063.23 493.883 1062.33 494.086 1061.52 494.492C1060.72 494.883 1060.09 495.445 1059.62 496.18C1059.15 496.898 1058.91 497.758 1058.91 498.758H1053.24C1053.24 496.945 1053.72 495.336 1054.67 493.93C1055.62 492.523 1056.92 491.422 1058.56 490.625C1060.22 489.812 1062.08 489.406 1064.14 489.406C1066.34 489.406 1068.27 489.773 1069.91 490.508C1071.56 491.227 1072.85 492.305 1073.77 493.742C1074.7 495.18 1075.16 496.961 1075.16 499.086C1075.16 500.055 1074.93 501.039 1074.48 502.039C1074.02 503.039 1073.35 503.953 1072.46 504.781C1071.57 505.594 1070.46 506.258 1069.13 506.773C1067.8 507.273 1066.27 507.523 1064.52 507.523H1060.27V504.383ZM1060.27 508.789V505.695H1064.52C1066.52 505.695 1068.22 505.93 1069.62 506.398C1071.05 506.867 1072.2 507.516 1073.09 508.344C1073.98 509.156 1074.63 510.086 1075.04 511.133C1075.46 512.18 1075.67 513.289 1075.67 514.461C1075.67 516.055 1075.38 517.477 1074.8 518.727C1074.24 519.961 1073.44 521.008 1072.39 521.867C1071.34 522.727 1070.12 523.375 1068.71 523.812C1067.32 524.25 1065.8 524.469 1064.16 524.469C1062.7 524.469 1061.29 524.266 1059.95 523.859C1058.6 523.453 1057.4 522.852 1056.34 522.055C1055.27 521.242 1054.43 520.234 1053.8 519.031C1053.2 517.812 1052.89 516.406 1052.89 514.812H1058.54C1058.54 515.828 1058.77 516.727 1059.24 517.508C1059.73 518.273 1060.4 518.875 1061.26 519.312C1062.13 519.75 1063.13 519.969 1064.26 519.969C1065.45 519.969 1066.47 519.758 1067.33 519.336C1068.19 518.914 1068.84 518.289 1069.3 517.461C1069.77 516.633 1070 515.633 1070 514.461C1070 513.133 1069.74 512.055 1069.23 511.227C1068.71 510.398 1067.98 509.789 1067.02 509.398C1066.07 508.992 1064.95 508.789 1063.65 508.789H1060.27Z" fill="black"/>
<path d="M1250.42 515.211C1250.42 514.508 1250.31 513.883 1250.09 513.336C1249.89 512.789 1249.52 512.289 1248.99 511.836C1248.46 511.383 1247.71 510.945 1246.74 510.523C1245.79 510.086 1244.57 509.641 1243.09 509.188C1241.46 508.688 1239.96 508.133 1238.59 507.523C1237.23 506.898 1236.04 506.18 1235.02 505.367C1234.01 504.539 1233.22 503.594 1232.66 502.531C1232.09 501.453 1231.81 500.211 1231.81 498.805C1231.81 497.414 1232.1 496.148 1232.68 495.008C1233.27 493.867 1234.11 492.883 1235.19 492.055C1236.28 491.211 1237.57 490.562 1239.05 490.109C1240.54 489.641 1242.18 489.406 1243.98 489.406C1246.51 489.406 1248.69 489.875 1250.52 490.812C1252.36 491.75 1253.77 493.008 1254.76 494.586C1255.76 496.164 1256.26 497.906 1256.26 499.812H1250.42C1250.42 498.688 1250.18 497.695 1249.7 496.836C1249.23 495.961 1248.51 495.273 1247.54 494.773C1246.59 494.273 1245.38 494.023 1243.91 494.023C1242.52 494.023 1241.36 494.234 1240.44 494.656C1239.52 495.078 1238.83 495.648 1238.38 496.367C1237.92 497.086 1237.7 497.898 1237.7 498.805C1237.7 499.445 1237.84 500.031 1238.14 500.562C1238.44 501.078 1238.89 501.562 1239.5 502.016C1240.11 502.453 1240.88 502.867 1241.8 503.258C1242.72 503.648 1243.8 504.023 1245.05 504.383C1246.95 504.945 1248.59 505.57 1250 506.258C1251.41 506.93 1252.58 507.695 1253.52 508.555C1254.45 509.414 1255.16 510.391 1255.62 511.484C1256.09 512.562 1256.33 513.789 1256.33 515.164C1256.33 516.602 1256.04 517.898 1255.46 519.055C1254.88 520.195 1254.05 521.172 1252.98 521.984C1251.91 522.781 1250.63 523.398 1249.13 523.836C1247.65 524.258 1245.99 524.469 1244.16 524.469C1242.52 524.469 1240.91 524.25 1239.31 523.812C1237.73 523.375 1236.3 522.711 1235 521.82C1233.7 520.914 1232.67 519.789 1231.91 518.445C1231.14 517.086 1230.76 515.5 1230.76 513.688H1236.64C1236.64 514.797 1236.83 515.742 1237.2 516.523C1237.59 517.305 1238.13 517.945 1238.82 518.445C1239.51 518.93 1240.3 519.289 1241.21 519.523C1242.13 519.758 1243.12 519.875 1244.16 519.875C1245.54 519.875 1246.69 519.68 1247.61 519.289C1248.55 518.898 1249.25 518.352 1249.72 517.648C1250.19 516.945 1250.42 516.133 1250.42 515.211ZM1284.15 511.836V516.336H1259.54L1259.35 512.938L1274.07 489.875H1278.59L1273.7 498.266L1265.23 511.836H1284.15ZM1279.88 489.875V524H1274.23V489.875H1279.88Z" fill="black"/>
<path d="M1080.42 324.211C1080.42 323.508 1080.31 322.883 1080.09 322.336C1079.89 321.789 1079.52 321.289 1078.99 320.836C1078.46 320.383 1077.71 319.945 1076.74 319.523C1075.79 319.086 1074.57 318.641 1073.09 318.188C1071.46 317.688 1069.96 317.133 1068.59 316.523C1067.23 315.898 1066.04 315.18 1065.02 314.367C1064.01 313.539 1063.22 312.594 1062.66 311.531C1062.09 310.453 1061.81 309.211 1061.81 307.805C1061.81 306.414 1062.1 305.148 1062.68 304.008C1063.27 302.867 1064.11 301.883 1065.19 301.055C1066.28 300.211 1067.57 299.562 1069.05 299.109C1070.54 298.641 1072.18 298.406 1073.98 298.406C1076.51 298.406 1078.69 298.875 1080.52 299.812C1082.36 300.75 1083.77 302.008 1084.76 303.586C1085.76 305.164 1086.26 306.906 1086.26 308.812H1080.42C1080.42 307.688 1080.18 306.695 1079.7 305.836C1079.23 304.961 1078.51 304.273 1077.54 303.773C1076.59 303.273 1075.38 303.023 1073.91 303.023C1072.52 303.023 1071.36 303.234 1070.44 303.656C1069.52 304.078 1068.83 304.648 1068.38 305.367C1067.92 306.086 1067.7 306.898 1067.7 307.805C1067.7 308.445 1067.84 309.031 1068.14 309.562C1068.44 310.078 1068.89 310.562 1069.5 311.016C1070.11 311.453 1070.88 311.867 1071.8 312.258C1072.72 312.648 1073.8 313.023 1075.05 313.383C1076.95 313.945 1078.59 314.57 1080 315.258C1081.41 315.93 1082.58 316.695 1083.52 317.555C1084.45 318.414 1085.16 319.391 1085.62 320.484C1086.09 321.562 1086.33 322.789 1086.33 324.164C1086.33 325.602 1086.04 326.898 1085.46 328.055C1084.88 329.195 1084.05 330.172 1082.98 330.984C1081.91 331.781 1080.63 332.398 1079.13 332.836C1077.65 333.258 1075.99 333.469 1074.16 333.469C1072.52 333.469 1070.91 333.25 1069.31 332.812C1067.73 332.375 1066.3 331.711 1065 330.82C1063.7 329.914 1062.67 328.789 1061.91 327.445C1061.14 326.086 1060.76 324.5 1060.76 322.688H1066.64C1066.64 323.797 1066.83 324.742 1067.2 325.523C1067.59 326.305 1068.13 326.945 1068.82 327.445C1069.51 327.93 1070.3 328.289 1071.21 328.523C1072.13 328.758 1073.12 328.875 1074.16 328.875C1075.54 328.875 1076.69 328.68 1077.61 328.289C1078.55 327.898 1079.25 327.352 1079.72 326.648C1080.19 325.945 1080.42 325.133 1080.42 324.211ZM1096.57 317.133L1092.07 316.031L1093.92 298.875H1112.32V303.656H1098.61L1097.67 312.023C1098.2 311.711 1098.94 311.406 1099.88 311.109C1100.81 310.797 1101.88 310.641 1103.09 310.641C1104.7 310.641 1106.13 310.906 1107.4 311.438C1108.68 311.953 1109.77 312.711 1110.66 313.711C1111.55 314.695 1112.23 315.898 1112.7 317.32C1113.16 318.727 1113.4 320.312 1113.4 322.078C1113.4 323.656 1113.16 325.133 1112.7 326.508C1112.24 327.883 1111.55 329.094 1110.63 330.141C1109.71 331.188 1108.55 332.008 1107.14 332.602C1105.75 333.18 1104.1 333.469 1102.2 333.469C1100.77 333.469 1099.41 333.266 1098.09 332.859C1096.8 332.438 1095.63 331.82 1094.6 331.008C1093.57 330.18 1092.74 329.164 1092.12 327.961C1091.49 326.742 1091.13 325.344 1091.04 323.766H1096.57C1096.71 324.875 1097.02 325.82 1097.48 326.602C1097.97 327.367 1098.61 327.953 1099.41 328.359C1100.2 328.766 1101.12 328.969 1102.17 328.969C1103.12 328.969 1103.95 328.805 1104.63 328.477C1105.32 328.133 1105.89 327.648 1106.34 327.023C1106.81 326.383 1107.16 325.633 1107.38 324.773C1107.61 323.914 1107.73 322.961 1107.73 321.914C1107.73 320.914 1107.59 320 1107.33 319.172C1107.08 318.344 1106.7 317.625 1106.18 317.016C1105.68 316.406 1105.05 315.938 1104.28 315.609C1103.52 315.266 1102.63 315.094 1101.63 315.094C1100.29 315.094 1099.26 315.289 1098.54 315.68C1097.84 316.07 1097.18 316.555 1096.57 317.133Z" fill="black"/>
<path d="M728.087 37.3215C729.064 36.3452 729.064 34.7623 728.087 33.7859L712.177 17.876C711.201 16.8997 709.618 16.8997 708.642 17.876C707.666 18.8524 707.666 20.4353 708.642 21.4116L722.784 35.5537L708.642 49.6958C707.666 50.6722 707.666 52.2551 708.642 53.2314C709.618 54.2077 711.201 54.2077 712.177 53.2314L728.087 37.3215ZM306 38.0537H726.32V33.0537H306V38.0537Z" fill="black"/>
<path d="M861.859 27.184C865.854 27.184 867.851 29.48 867.851 34.072V60H863.091V34.128C863.091 32.224 862.475 31.272 861.243 31.272C860.646 31.272 860.179 31.4213 859.843 31.72C859.544 31.9813 859.283 32.392 859.059 32.952L848.755 60H843.771V38.328C843.211 38.5147 842.67 38.608 842.147 38.608C840.504 38.608 839.142 38.0853 838.059 37.04C837.014 35.9573 836.491 34.5573 836.491 32.84C836.491 31.1973 837.051 29.8533 838.171 28.808C839.291 27.7253 840.71 27.184 842.427 27.184C844.219 27.184 845.675 27.744 846.795 28.864C847.952 29.9467 848.531 31.3653 848.531 33.12V47.792C848.531 49.2853 848.382 51.1893 848.083 53.504L849.651 47.568L855.307 32.224C856.539 28.864 858.723 27.184 861.859 27.184ZM839.571 32.896C839.571 33.6427 839.814 34.2773 840.299 34.8C840.822 35.2853 841.456 35.528 842.203 35.528C842.987 35.528 843.622 35.2853 844.107 34.8C844.592 34.2773 844.835 33.6427 844.835 32.896C844.835 32.1493 844.592 31.5333 844.107 31.048C843.622 30.5253 842.987 30.264 842.203 30.264C841.456 30.264 840.822 30.5253 840.299 31.048C839.814 31.5333 839.571 32.1493 839.571 32.896ZM890.264 36.144C890.264 34.576 889.741 33.344 888.696 32.448C887.688 31.5147 886.288 31.048 884.496 31.048C882.629 31.048 881.136 31.5707 880.016 32.616C878.896 33.6613 878.336 35.08 878.336 36.872H873.688C873.688 33.8853 874.658 31.5333 876.6 29.816C878.541 28.0613 881.173 27.184 884.496 27.184C887.744 27.184 890.301 27.9867 892.168 29.592C894.072 31.16 895.024 33.3067 895.024 36.032V60H890.264V36.144ZM914.364 27.184C916.156 27.184 917.612 27.744 918.732 28.864C919.889 29.9467 920.468 31.3653 920.468 33.12V60H915.764L900.364 43.2L902.996 40.344L915.708 54.12V38.328C915.148 38.5147 914.606 38.608 914.084 38.608C912.441 38.608 911.078 38.0853 909.996 37.04C908.95 35.9573 908.428 34.5573 908.428 32.84C908.428 31.1973 908.988 29.8533 910.108 28.808C911.228 27.7253 912.646 27.184 914.364 27.184ZM911.508 32.896C911.508 33.6427 911.75 34.2773 912.236 34.8C912.758 35.2853 913.393 35.528 914.14 35.528C914.924 35.528 915.558 35.2853 916.044 34.8C916.529 34.2773 916.772 33.6427 916.772 32.896C916.772 32.1493 916.529 31.5333 916.044 31.048C915.558 30.5253 914.924 30.264 914.14 30.264C913.393 30.264 912.758 30.5253 912.236 31.048C911.75 31.5333 911.508 32.1493 911.508 32.896ZM939.457 49.136C941.1 49.136 942.444 49.6773 943.489 50.76C944.572 51.8427 945.113 53.224 945.113 54.904C945.113 56.5467 944.553 57.9093 943.433 58.992C942.313 60.0373 940.895 60.56 939.177 60.56C937.385 60.56 935.911 60.0187 934.753 58.936C933.633 57.816 933.073 56.3787 933.073 54.624V11.28L926.857 19.904L923.049 18.56C922.9 15.3867 922.209 10.7013 920.977 4.504H924.785C925.644 8.34933 926.167 11.952 926.353 15.312L933.409 5.344H937.833V49.416C938.393 49.2293 938.935 49.136 939.457 49.136ZM939.401 57.48C940.148 57.48 940.764 57.2373 941.249 56.752C941.772 56.2293 942.033 55.5947 942.033 54.848C942.033 54.1013 941.772 53.4853 941.249 53C940.764 52.4773 940.148 52.216 939.401 52.216C938.617 52.216 937.983 52.4773 937.497 53C937.012 53.4853 936.769 54.1013 936.769 54.848C936.769 55.5947 937.012 56.2293 937.497 56.752C937.983 57.2373 938.617 57.48 939.401 57.48ZM978.974 14.472V53C978.974 55.352 977.91 57.2 975.782 58.544C973.691 59.888 970.76 60.56 966.99 60.56C963.331 60.56 960.419 59.888 958.254 58.544C956.088 57.2 955.006 55.352 955.006 53V38.328C954.446 38.5147 953.904 38.608 953.382 38.608C951.739 38.608 950.376 38.0853 949.294 37.04C948.248 35.9573 947.726 34.5573 947.726 32.84C947.726 31.1973 948.286 29.8533 949.406 28.808C950.526 27.7253 951.944 27.184 953.662 27.184C955.454 27.184 956.91 27.744 958.03 28.864C959.187 29.9467 959.766 31.3653 959.766 33.12V52.496C959.766 53.7653 960.419 54.792 961.726 55.576C963.07 56.3227 964.824 56.696 966.99 56.696C969.267 56.696 971.04 56.3227 972.31 55.576C973.579 54.8293 974.214 53.8027 974.214 52.496V14.472H978.974ZM950.806 32.896C950.806 33.6427 951.048 34.2773 951.534 34.8C952.056 35.2853 952.691 35.528 953.438 35.528C954.222 35.528 954.856 35.2853 955.342 34.8C955.827 34.2773 956.07 33.6427 956.07 32.896C956.07 32.1493 955.827 31.5333 955.342 31.048C954.856 30.5253 954.222 30.264 953.438 30.264C952.691 30.264 952.056 30.5253 951.534 31.048C951.048 31.5333 950.806 32.1493 950.806 32.896ZM1009.62 34.352C1011.82 35.2107 1012.92 37.0773 1012.92 39.952V52.664C1012.92 55.1653 1012.1 57.1067 1010.46 58.488C1008.86 59.8693 1006.56 60.56 1003.57 60.56C1000.62 60.56 998.327 59.888 996.685 58.544C995.079 57.1627 994.277 55.2027 994.277 52.664V46.448C994.277 45.44 994.445 44.544 994.781 43.76C995.154 42.976 995.695 41.9867 996.405 40.792C997.114 39.7093 997.655 38.7387 998.029 37.88C998.439 36.984 998.645 36.0133 998.645 34.968C998.645 33.4747 998.178 32.3733 997.245 31.664C996.311 30.9547 995.098 30.6 993.605 30.6C991.813 30.6 990.375 31.048 989.293 31.944C989.479 31.9067 989.778 31.888 990.189 31.888C991.645 31.888 992.839 32.3733 993.773 33.344C994.743 34.2773 995.229 35.528 995.229 37.096C995.229 38.6267 994.743 39.896 993.773 40.904C992.802 41.912 991.477 42.416 989.797 42.416C988.005 42.416 986.605 41.8373 985.597 40.68C984.589 39.4853 984.085 37.8987 984.085 35.92C984.085 33.4187 984.925 31.3467 986.605 29.704C988.322 28.024 990.693 27.184 993.717 27.184C996.405 27.184 998.589 27.8187 1000.27 29.088C1001.95 30.3573 1002.79 32.224 1002.79 34.688C1002.79 35.9573 1002.62 37.0773 1002.28 38.048C1001.95 39.0187 1001.44 40.0827 1000.77 41.24C1000.18 42.2853 999.727 43.2 999.429 43.984C999.167 44.768 999.037 45.6267 999.037 46.56V52.888C999.037 54.0827 999.429 55.016 1000.21 55.688C1001.03 56.36 1002.17 56.696 1003.63 56.696C1005.08 56.696 1006.2 56.36 1006.99 55.688C1007.77 55.016 1008.16 54.0827 1008.16 52.888V40.12C1008.16 38.9627 1007.9 38.048 1007.38 37.376C1006.9 36.704 1006.09 36.1813 1004.97 35.808V33.176C1006.43 32.5413 1007.53 31.6267 1008.28 30.432C1009.06 29.2373 1009.49 27.688 1009.56 25.784H1014.49C1014.34 27.7627 1013.78 29.536 1012.81 31.104C1011.84 32.6347 1010.78 33.7173 1009.62 34.352ZM992.373 37.096C992.373 36.3493 992.13 35.752 991.645 35.304C991.197 34.856 990.599 34.632 989.853 34.632C989.106 34.632 988.49 34.856 988.005 35.304C987.557 35.752 987.333 36.3493 987.333 37.096C987.333 37.8427 987.557 38.4587 988.005 38.944C988.49 39.392 989.106 39.616 989.853 39.616C990.599 39.616 991.197 39.392 991.645 38.944C992.13 38.4587 992.373 37.8427 992.373 37.096ZM1032.55 27.184C1036.51 27.184 1039.64 28.0613 1041.96 29.816C1044.27 31.5333 1045.43 33.8667 1045.43 36.816V60H1040.73V46.84C1040.73 45.16 1039.92 43.8347 1038.32 42.864C1036.71 41.8933 1034.92 41.408 1032.94 41.408C1030.96 41.408 1029.3 41.8933 1027.96 42.864C1026.61 43.7973 1025.94 45.104 1025.94 46.784V49.416C1026.5 49.2293 1027.04 49.136 1027.57 49.136C1029.21 49.136 1030.55 49.6773 1031.6 50.76C1032.64 51.8053 1033.17 53.1867 1033.17 54.904C1033.17 56.5467 1032.61 57.9093 1031.49 58.992C1030.4 60.0373 1028.98 60.56 1027.23 60.56C1025.44 60.56 1023.98 60.0187 1022.86 58.936C1021.74 57.816 1021.18 56.3787 1021.18 54.624V46.784C1021.18 44.9173 1021.69 43.312 1022.69 41.968C1023.7 40.624 1025.06 39.5973 1026.78 38.888C1028.54 38.1413 1030.48 37.768 1032.61 37.768C1034.1 37.768 1035.57 38.0107 1037.03 38.496C1038.49 38.9813 1039.72 39.7467 1040.73 40.792V36.648C1040.73 34.9307 1039.98 33.568 1038.49 32.56C1037.03 31.552 1035.05 31.048 1032.55 31.048C1030.16 31.048 1028.16 31.5333 1026.56 32.504C1024.95 33.4747 1023.98 34.7813 1023.65 36.424H1019.05C1019.32 33.5867 1020.66 31.3467 1023.09 29.704C1025.51 28.024 1028.67 27.184 1032.55 27.184ZM1030.09 54.848C1030.09 54.1013 1029.84 53.4853 1029.36 53C1028.87 52.4773 1028.26 52.216 1027.51 52.216C1026.73 52.216 1026.07 52.4773 1025.55 53C1025.06 53.4853 1024.82 54.1013 1024.82 54.848C1024.82 55.5947 1025.06 56.2293 1025.55 56.752C1026.07 57.2373 1026.73 57.48 1027.51 57.48C1028.26 57.48 1028.87 57.2373 1029.36 56.752C1029.84 56.2293 1030.09 55.5947 1030.09 54.848ZM1081.55 27.744V53C1081.55 55.352 1080.51 57.2 1078.42 58.544C1076.36 59.888 1073.51 60.56 1069.85 60.56C1066.19 60.56 1063.32 59.888 1061.23 58.544C1059.17 57.2 1058.15 55.352 1058.15 53V38.328C1057.59 38.5147 1057.04 38.608 1056.52 38.608C1054.88 38.608 1053.52 38.0853 1052.43 37.04C1051.39 35.9573 1050.87 34.5573 1050.87 32.84C1050.87 31.1973 1051.43 29.8533 1052.55 28.808C1053.67 27.7253 1055.08 27.184 1056.8 27.184C1058.59 27.184 1060.05 27.744 1061.17 28.864C1062.33 29.9467 1062.91 31.3653 1062.91 33.12V52.496C1062.91 53.8027 1063.52 54.8293 1064.75 55.576C1065.99 56.3227 1067.68 56.696 1069.85 56.696C1072.02 56.696 1073.71 56.3227 1074.95 55.576C1076.18 54.8293 1076.79 53.8027 1076.79 52.496V27.744H1081.55ZM1053.95 32.896C1053.95 33.6427 1054.19 34.2773 1054.67 34.8C1055.2 35.2853 1055.83 35.528 1056.58 35.528C1057.36 35.528 1058 35.2853 1058.48 34.8C1058.97 34.2773 1059.21 33.6427 1059.21 32.896C1059.21 32.1493 1058.97 31.5333 1058.48 31.048C1058 30.5253 1057.36 30.264 1056.58 30.264C1055.83 30.264 1055.2 30.5253 1054.67 31.048C1054.19 31.5333 1053.95 32.1493 1053.95 32.896ZM1076.61 72.32C1076.16 72.4693 1075.62 72.544 1074.99 72.544C1073.64 72.544 1072.54 72.1147 1071.68 71.256C1070.83 70.3973 1070.4 69.296 1070.4 67.952C1070.4 66.608 1070.9 65.5067 1071.91 64.648C1072.88 63.7893 1074.09 63.36 1075.55 63.36C1077.19 63.36 1078.52 63.7893 1079.52 64.648C1080.5 65.544 1080.98 66.6453 1080.98 67.952V78.48H1076.61V72.32ZM1075.04 69.968C1075.64 69.968 1076.13 69.7813 1076.5 69.408C1076.87 69.0347 1077.06 68.5493 1077.06 67.952C1077.06 67.3547 1076.87 66.8693 1076.5 66.496C1076.13 66.1227 1075.64 65.936 1075.04 65.936C1074.45 65.936 1073.96 66.1227 1073.59 66.496C1073.22 66.8693 1073.03 67.3547 1073.03 67.952C1073.03 68.5493 1073.22 69.0347 1073.59 69.408C1073.96 69.7813 1074.45 69.968 1075.04 69.968ZM1096.26 31.048C1095.32 31.048 1094.5 31.3467 1093.79 31.944C1093.12 32.504 1092.75 33.3253 1092.67 34.408C1096.85 34.9307 1100.4 35.8453 1103.31 37.152C1106.22 38.4587 1107.68 40.0827 1107.68 42.024V54.624C1107.68 56.3787 1107.1 57.816 1105.94 58.936C1104.82 60.0187 1103.37 60.56 1101.58 60.56C1099.82 60.56 1098.38 60.0373 1097.26 58.992C1096.18 57.9093 1095.64 56.5467 1095.64 54.904C1095.64 53.1867 1096.16 51.8053 1097.21 50.76C1098.25 49.6773 1099.62 49.136 1101.3 49.136C1101.82 49.136 1102.36 49.2293 1102.92 49.416V42.64C1102.92 41.5947 1101.54 40.624 1098.78 39.728C1096.01 38.7947 1092.28 38.0293 1087.58 37.432C1087.61 34.1467 1088.34 31.6267 1089.76 29.872C1091.22 28.08 1093.19 27.184 1095.7 27.184C1096.63 27.184 1097.53 27.2773 1098.38 27.464C1099.24 27.6507 1100.42 27.9493 1101.91 28.36C1103.52 28.8453 1104.56 29.088 1105.05 29.088C1105.5 29.088 1105.91 28.9013 1106.28 28.528C1106.65 28.1547 1106.91 27.632 1107.06 26.96L1110.65 27.968C1110.2 29.536 1109.55 30.7493 1108.69 31.608C1107.83 32.4667 1106.84 32.896 1105.72 32.896C1105.2 32.896 1104.53 32.8027 1103.7 32.616C1102.88 32.4293 1102.04 32.224 1101.18 32C1100.96 31.9253 1100.27 31.7573 1099.11 31.496C1097.99 31.1973 1097.04 31.048 1096.26 31.048ZM1101.35 57.48C1102.14 57.48 1102.77 57.2373 1103.26 56.752C1103.74 56.2293 1103.98 55.5947 1103.98 54.848C1103.98 54.1013 1103.74 53.4853 1103.26 53C1102.77 52.4773 1102.14 52.216 1101.35 52.216C1100.57 52.216 1099.93 52.4773 1099.45 53C1098.96 53.4853 1098.72 54.1013 1098.72 54.848C1098.72 55.5947 1098.96 56.2293 1099.45 56.752C1099.93 57.2373 1100.57 57.48 1101.35 57.48ZM1108.6 20.072C1108.75 20.7067 1108.9 21.6587 1109.04 22.928C1106.32 21.8453 1103.2 21.024 1099.69 20.464C1096.15 19.8667 1092.71 19.568 1089.39 19.568C1087.07 19.568 1085.11 19.6987 1083.51 19.96C1083.7 16.8613 1084.87 14.3973 1087.04 12.568C1089.2 10.7387 1092.04 9.824 1095.55 9.824C1099.21 9.824 1102.21 10.8507 1104.56 12.904V6.688H1108.6V20.072ZM1091.4 16.824C1093.76 16.824 1096.13 17.0107 1098.52 17.384C1100.91 17.7573 1103 18.28 1104.79 18.952C1103.93 16.936 1102.7 15.424 1101.09 14.416C1099.49 13.408 1097.64 12.904 1095.55 12.904C1093.68 12.904 1092.08 13.2773 1090.73 14.024C1089.39 14.7707 1088.49 15.7413 1088.04 16.936C1088.75 16.8613 1089.87 16.824 1091.4 16.824Z" fill="black"/>
</svg>
