<svg width="67" height="29" viewBox="0 0 67 29" fill="none" xmlns="http://www.w3.org/2000/svg">
<path fill-rule="evenodd" clip-rule="evenodd" d="M22.1938 1V8.53774H43.9688V1H67V28.2188H43.9689V20.2628H22.1939V28.2188H0V1H22.1938Z" fill="#C4C4C4"/>
<mask id="path-2-outside-1_2681_20" maskUnits="userSpaceOnUse" x="24" y="3" width="19" height="20" fill="black">
<rect fill="white" x="24" y="3" width="19" height="20"/>
<path d="M30.418 4.9375L33.6289 10.8906L36.8398 4.9375H40.8594L35.9023 13.3984L40.9883 22H36.9336L33.6289 15.9297L30.3242 22H26.2461L31.3438 13.3984L26.375 4.9375H30.418Z"/>
</mask>
<path d="M30.418 4.9375L33.6289 10.8906L36.8398 4.9375H40.8594L35.9023 13.3984L40.9883 22H36.9336L33.6289 15.9297L30.3242 22H26.2461L31.3438 13.3984L26.375 4.9375H30.418Z" fill="#D04B00"/>
<path d="M30.418 4.9375L31.2981 4.46278L31.0148 3.9375H30.418V4.9375ZM33.6289 10.8906L32.7488 11.3653L33.6289 12.9971L34.509 11.3653L33.6289 10.8906ZM36.8398 4.9375V3.9375H36.243L35.9597 4.46278L36.8398 4.9375ZM40.8594 4.9375L41.7222 5.443L42.6042 3.9375H40.8594V4.9375ZM35.9023 13.3984L35.0395 12.8929L34.742 13.4008L35.0416 13.9074L35.9023 13.3984ZM40.9883 22V23H42.7413L41.8491 21.491L40.9883 22ZM36.9336 22L36.0553 22.4781L36.3394 23H36.9336V22ZM33.6289 15.9297L34.5072 15.4515L33.6289 13.8382L32.7506 15.4515L33.6289 15.9297ZM30.3242 22V23H30.9184L31.2025 22.4781L30.3242 22ZM26.2461 22L25.3858 21.4902L24.491 23H26.2461V22ZM31.3438 13.3984L32.204 13.9083L32.5048 13.4008L32.2061 12.892L31.3438 13.3984ZM26.375 4.9375V3.9375H24.6281L25.5127 5.44389L26.375 4.9375ZM29.5378 5.41222L32.7488 11.3653L34.509 10.4159L31.2981 4.46278L29.5378 5.41222ZM34.509 11.3653L37.72 5.41222L35.9597 4.46278L32.7488 10.4159L34.509 11.3653ZM36.8398 5.9375H40.8594V3.9375H36.8398V5.9375ZM39.9966 4.432L35.0395 12.8929L36.7652 13.9039L41.7222 5.443L39.9966 4.432ZM35.0416 13.9074L40.1275 22.509L41.8491 21.491L36.7631 12.8895L35.0416 13.9074ZM40.9883 21H36.9336V23H40.9883V21ZM37.8119 21.5219L34.5072 15.4515L32.7506 16.4078L36.0553 22.4781L37.8119 21.5219ZM32.7506 15.4515L29.4459 21.5219L31.2025 22.4781L34.5072 16.4078L32.7506 15.4515ZM30.3242 21H26.2461V23H30.3242V21ZM27.1064 22.5098L32.204 13.9083L30.4835 12.8886L25.3858 21.4902L27.1064 22.5098ZM32.2061 12.892L27.2373 4.43111L25.5127 5.44389L30.4814 13.9048L32.2061 12.892ZM26.375 5.9375H30.418V3.9375H26.375V5.9375Z" fill="black" mask="url(#path-2-outside-1_2681_20)"/>
</svg>
