<svg width="48" height="31" viewBox="0 0 48 31" fill="none" xmlns="http://www.w3.org/2000/svg">
<rect x="1.5" y="1.5" width="45" height="28" stroke="white" stroke-width="3"/>
<path d="M18.2559 16.2959C16.8086 15.8799 15.7539 15.3701 15.0918 14.7666C14.4355 14.1572 14.1074 13.4072 14.1074 12.5166C14.1074 11.5088 14.5088 10.6768 15.3115 10.0205C16.1201 9.3584 17.1689 9.02734 18.458 9.02734C19.3369 9.02734 20.1191 9.19727 20.8047 9.53711C21.4961 9.87695 22.0293 10.3457 22.4043 10.9434C22.7852 11.541 22.9756 12.1943 22.9756 12.9033H21.2793C21.2793 12.1299 21.0332 11.5234 20.541 11.084C20.0488 10.6387 19.3545 10.416 18.458 10.416C17.626 10.416 16.9756 10.6006 16.5068 10.9697C16.0439 11.333 15.8125 11.8398 15.8125 12.4902C15.8125 13.0117 16.0322 13.4541 16.4717 13.8174C16.917 14.1748 17.6699 14.5029 18.7305 14.8018C19.7969 15.1006 20.6289 15.4316 21.2266 15.7949C21.8301 16.1523 22.2754 16.5713 22.5625 17.0518C22.8555 17.5322 23.002 18.0977 23.002 18.748C23.002 19.7852 22.5977 20.6172 21.7891 21.2441C20.9805 21.8652 19.8994 22.1758 18.5459 22.1758C17.667 22.1758 16.8467 22.0088 16.085 21.6748C15.3232 21.335 14.7344 20.8721 14.3184 20.2861C13.9082 19.7002 13.7031 19.0352 13.7031 18.291H15.3994C15.3994 19.0645 15.6836 19.6768 16.252 20.1279C16.8262 20.5732 17.5908 20.7959 18.5459 20.7959C19.4365 20.7959 20.1191 20.6143 20.5938 20.251C21.0684 19.8877 21.3057 19.3926 21.3057 18.7656C21.3057 18.1387 21.0859 17.6553 20.6465 17.3154C20.207 16.9697 19.4102 16.6299 18.2559 16.2959ZM34.6211 20.3213C34.1875 20.9424 33.5811 21.4082 32.8018 21.7188C32.0283 22.0234 31.126 22.1758 30.0947 22.1758C29.0518 22.1758 28.126 21.9326 27.3174 21.4463C26.5088 20.9541 25.8818 20.2568 25.4365 19.3545C24.9971 18.4521 24.7715 17.4062 24.7598 16.2168V15.1006C24.7598 13.1729 25.208 11.6787 26.1045 10.6182C27.0068 9.55762 28.2725 9.02734 29.9014 9.02734C31.2373 9.02734 32.3125 9.37012 33.127 10.0557C33.9414 10.7354 34.4395 11.7021 34.6211 12.9561H32.9336C32.6172 11.2627 31.6094 10.416 29.9102 10.416C28.7793 10.416 27.9209 10.8145 27.335 11.6113C26.7549 12.4023 26.4619 13.5508 26.4561 15.0566V16.1025C26.4561 17.5381 26.7842 18.6807 27.4404 19.5303C28.0967 20.374 28.9844 20.7959 30.1035 20.7959C30.7363 20.7959 31.29 20.7256 31.7646 20.585C32.2393 20.4443 32.6318 20.207 32.9424 19.873V16.999H29.9805V15.6279H34.6211V20.3213Z" fill="white"/>
</svg>
