<svg width="48" height="31" viewBox="0 0 48 31" fill="none" xmlns="http://www.w3.org/2000/svg">
<rect x="1.5" y="1.5" width="45" height="28" stroke="white" stroke-width="3"/>
<path d="M20.2559 16.2959C18.8086 15.8799 17.7539 15.3701 17.0918 14.7666C16.4355 14.1572 16.1074 13.4072 16.1074 12.5166C16.1074 11.5088 16.5088 10.6768 17.3115 10.0205C18.1201 9.3584 19.1689 9.02734 20.458 9.02734C21.3369 9.02734 22.1191 9.19727 22.8047 9.53711C23.4961 9.87695 24.0293 10.3457 24.4043 10.9434C24.7852 11.541 24.9756 12.1943 24.9756 12.9033H23.2793C23.2793 12.1299 23.0332 11.5234 22.541 11.084C22.0488 10.6387 21.3545 10.416 20.458 10.416C19.626 10.416 18.9756 10.6006 18.5068 10.9697C18.0439 11.333 17.8125 11.8398 17.8125 12.4902C17.8125 13.0117 18.0322 13.4541 18.4717 13.8174C18.917 14.1748 19.6699 14.5029 20.7305 14.8018C21.7969 15.1006 22.6289 15.4316 23.2266 15.7949C23.8301 16.1523 24.2754 16.5713 24.5625 17.0518C24.8555 17.5322 25.002 18.0977 25.002 18.748C25.002 19.7852 24.5977 20.6172 23.7891 21.2441C22.9805 21.8652 21.8994 22.1758 20.5459 22.1758C19.667 22.1758 18.8467 22.0088 18.085 21.6748C17.3232 21.335 16.7344 20.8721 16.3184 20.2861C15.9082 19.7002 15.7031 19.0352 15.7031 18.291H17.3994C17.3994 19.0645 17.6836 19.6768 18.252 20.1279C18.8262 20.5732 19.5908 20.7959 20.5459 20.7959C21.4365 20.7959 22.1191 20.6143 22.5938 20.251C23.0684 19.8877 23.3057 19.3926 23.3057 18.7656C23.3057 18.1387 23.0859 17.6553 22.6465 17.3154C22.207 16.9697 21.4102 16.6299 20.2559 16.2959ZM30.9434 16.2959C29.4961 15.8799 28.4414 15.3701 27.7793 14.7666C27.123 14.1572 26.7949 13.4072 26.7949 12.5166C26.7949 11.5088 27.1963 10.6768 27.999 10.0205C28.8076 9.3584 29.8564 9.02734 31.1455 9.02734C32.0244 9.02734 32.8066 9.19727 33.4922 9.53711C34.1836 9.87695 34.7168 10.3457 35.0918 10.9434C35.4727 11.541 35.6631 12.1943 35.6631 12.9033H33.9668C33.9668 12.1299 33.7207 11.5234 33.2285 11.084C32.7363 10.6387 32.042 10.416 31.1455 10.416C30.3135 10.416 29.6631 10.6006 29.1943 10.9697C28.7314 11.333 28.5 11.8398 28.5 12.4902C28.5 13.0117 28.7197 13.4541 29.1592 13.8174C29.6045 14.1748 30.3574 14.5029 31.418 14.8018C32.4844 15.1006 33.3164 15.4316 33.9141 15.7949C34.5176 16.1523 34.9629 16.5713 35.25 17.0518C35.543 17.5322 35.6895 18.0977 35.6895 18.748C35.6895 19.7852 35.2852 20.6172 34.4766 21.2441C33.668 21.8652 32.5869 22.1758 31.2334 22.1758C30.3545 22.1758 29.5342 22.0088 28.7725 21.6748C28.0107 21.335 27.4219 20.8721 27.0059 20.2861C26.5957 19.7002 26.3906 19.0352 26.3906 18.291H28.0869C28.0869 19.0645 28.3711 19.6768 28.9395 20.1279C29.5137 20.5732 30.2783 20.7959 31.2334 20.7959C32.124 20.7959 32.8066 20.6143 33.2812 20.251C33.7559 19.8877 33.9932 19.3926 33.9932 18.7656C33.9932 18.1387 33.7734 17.6553 33.334 17.3154C32.8945 16.9697 32.0977 16.6299 30.9434 16.2959Z" fill="white"/>
</svg>
