<svg width="67" height="29" viewBox="0 0 67 29" fill="none" xmlns="http://www.w3.org/2000/svg">
<path fill-rule="evenodd" clip-rule="evenodd" d="M22.1938 1V8.53774H43.9688V1H67V28.2188H43.9689V20.2628H22.1939V28.2188H0V1H22.1938Z" fill="#C79F12"/>
<mask id="path-2-outside-1_908_48" maskUnits="userSpaceOnUse" x="24" y="3" width="19" height="20" fill="black">
<rect fill="white" x="24" y="3" width="19" height="20"/>
<path d="M33.6289 10.8203L36.8281 4.9375H40.8711L35.9023 13.3984L41 22H36.9102L33.6289 16.0234L30.3477 22H26.2578L31.3555 13.3984L26.3867 4.9375H30.4297L33.6289 10.8203Z"/>
</mask>
<path d="M33.6289 10.8203L36.8281 4.9375H40.8711L35.9023 13.3984L41 22H36.9102L33.6289 16.0234L30.3477 22H26.2578L31.3555 13.3984L26.3867 4.9375H30.4297L33.6289 10.8203Z" fill="#D04B00"/>
<path d="M33.6289 10.8203L32.7504 11.2981L33.6289 12.9135L34.5074 11.2981L33.6289 10.8203ZM36.8281 4.9375V3.9375H36.2336L35.9496 4.45975L36.8281 4.9375ZM40.8711 4.9375L41.7334 5.44389L42.618 3.9375H40.8711V4.9375ZM35.9023 13.3984L35.04 12.892L34.7413 13.4008L35.0421 13.9083L35.9023 13.3984ZM41 22V23H42.7551L41.8603 21.4902L41 22ZM36.9102 22L36.0336 22.4813L36.3184 23H36.9102V22ZM33.6289 16.0234L34.5055 15.5422L33.6289 13.9456L32.7523 15.5422L33.6289 16.0234ZM30.3477 22V23H30.9394L31.2242 22.4813L30.3477 22ZM26.2578 22L25.3975 21.4902L24.5027 23H26.2578V22ZM31.3555 13.3984L32.2157 13.9083L32.5165 13.4008L32.2178 12.892L31.3555 13.3984ZM26.3867 4.9375V3.9375H24.6398L25.5244 5.44389L26.3867 4.9375ZM30.4297 4.9375L31.3082 4.45975L31.0242 3.9375H30.4297V4.9375ZM34.5074 11.2981L37.7066 5.41525L35.9496 4.45975L32.7504 10.3426L34.5074 11.2981ZM36.8281 5.9375H40.8711V3.9375H36.8281V5.9375ZM40.0088 4.43111L35.04 12.892L36.7646 13.9048L41.7334 5.44389L40.0088 4.43111ZM35.0421 13.9083L40.1397 22.5098L41.8603 21.4902L36.7626 12.8886L35.0421 13.9083ZM41 21H36.9102V23H41V21ZM37.7867 21.5187L34.5055 15.5422L32.7523 16.5047L36.0336 22.4813L37.7867 21.5187ZM32.7523 15.5422L29.4711 21.5187L31.2242 22.4813L34.5055 16.5047L32.7523 15.5422ZM30.3477 21H26.2578V23H30.3477V21ZM27.1181 22.5098L32.2157 13.9083L30.4952 12.8886L25.3975 21.4902L27.1181 22.5098ZM32.2178 12.892L27.249 4.43111L25.5244 5.44389L30.4932 13.9048L32.2178 12.892ZM26.3867 5.9375H30.4297V3.9375H26.3867V5.9375ZM29.5512 5.41525L32.7504 11.2981L34.5074 10.3426L31.3082 4.45975L29.5512 5.41525Z" fill="black" mask="url(#path-2-outside-1_908_48)"/>
</svg>
